<?xml version="1.0" encoding="UTF-8" standalone="no"?>
<svg width="1600px" height="736px" viewBox="0 0 1600 736" version="1.1" xmlns="http://www.w3.org/2000/svg" xmlns:xlink="http://www.w3.org/1999/xlink">
    <!-- Generator: Sketch 46.2 (44496) - http://www.bohemiancoding.com/sketch -->
    <title>Group</title>
    <desc>Created with Sketch.</desc>
    <defs>
        <linearGradient x1="29.3925781%" y1="-5.09139351%" x2="97.1972379%" y2="83.8735331%" id="linearGradient-1">
            <stop stop-color="#000000" offset="0%"></stop>
            <stop stop-color="#1B212D" offset="100%"></stop>
        </linearGradient>
        <polygon id="path-2" points="28.507 0.1389 28.507 19.7689 0.9994 19.7689 0.9994 0.1389 28.507 0.1389"></polygon>
        <polygon id="path-4" points="28.507 0.8792 28.507 20.5092 0.9994 20.5092 0.9994 0.8792 28.507 0.8792"></polygon>
        <polygon id="path-6" points="27.507 0.6194 27.507 20.2494 0.0004 20.2494 0.0004 0.6194 27.507 0.6194"></polygon>
        <polygon id="path-8" points="28.507 0.5089 28.507 20.1389 0.9994 20.1389 0.9994 0.5089 28.507 0.5089"></polygon>
        <polygon id="path-10" points="28.507 0.2492 28.507 19.8792 0.9994 19.8792 0.9994 0.2492 28.507 0.2492"></polygon>
        <polygon id="path-12" points="27.507 0.9894 27.507 20.6194 0.0004 20.6194 0.0004 0.9894 27.507 0.9894"></polygon>
        <polygon id="path-14" points="10.507 0.8962 10.507 10.7112 0.1097 10.7112 0.1097 0.8962 10.507 0.8962"></polygon>
        <polygon id="path-16" points="34.0004 5.253 0.000400000003 5.253 0.0004 0.5695 34.0004 0.5695 34.0004 5.253"></polygon>
        <polygon id="path-18" points="27.507 0.3097 27.507 19.9397 0.0004 19.9397 0.0004 0.3097 27.507 0.3097"></polygon>
        <polygon id="path-20" points="27.507 0.5304 27.507 20.1604 0.0004 20.1604 0.0004 0.5304 27.507 0.5304"></polygon>
        <polygon id="path-22" points="27.507 0.7902 27.507 20.4202 0.0004 20.4202 0.0004 0.7902 27.507 0.7902"></polygon>
        <polygon id="path-24" points="27.507 0.0499 27.507 19.6799 0.0004 19.6799 0.0004 0.0499 27.507 0.0499"></polygon>
        <polygon id="path-26" points="27.507 0.9397 27.507 20.5697 0.0004 20.5697 0.0004 0.9397 27.507 0.9397"></polygon>
        <polygon id="path-28" points="27.507 0.6799 27.507 20.3099 0.0004 20.3099 0.0004 0.6799 27.507 0.6799"></polygon>
        <polygon id="path-30" points="27.507 0.4202 27.507 20.0502 0.0004 20.0502 0.0004 0.4202 27.507 0.4202"></polygon>
        <polygon id="path-32" points="27.507 0.1604 27.507 19.7904 0.0004 19.7904 0.0004 0.1604 27.507 0.1604"></polygon>
        <linearGradient x1="-2.49963866%" y1="103.851933%" x2="100%" y2="0%" id="linearGradient-34">
            <stop stop-color="#C62A71" stop-opacity="0" offset="0%"></stop>
            <stop stop-color="#C62A71" offset="12.9683514%"></stop>
            <stop stop-color="#C62A71" offset="88.3350606%"></stop>
            <stop stop-color="#C62A71" stop-opacity="0" offset="100%"></stop>
        </linearGradient>
        <linearGradient x1="0%" y1="0%" x2="100%" y2="100%" id="linearGradient-35">
            <stop stop-color="#C62A71" stop-opacity="0" offset="0%"></stop>
            <stop stop-color="#C62A71" offset="12.9683514%"></stop>
            <stop stop-color="#C62A71" offset="88.3350606%"></stop>
            <stop stop-color="#C62A71" stop-opacity="0" offset="100%"></stop>
        </linearGradient>
    </defs>
    <g id="✓--Home" stroke="none" stroke-width="1" fill="none" fill-rule="evenodd">
        <g id="Home-1---1600" transform="translate(0.000000, -84.000000)">
            <g id="Group" transform="translate(0.000000, 84.000000)">
                <rect id="Rectangle-2" fill="url(#linearGradient-1)" x="0" y="0" width="1600" height="736"></rect>
                <g id="Group-25" transform="translate(888.000000, 274.000000)">
                    <path d="M408.499,127.3 L537.656,201.569" id="Fill-995" stroke="#4F637A"></path>
                    <path d="M476.4995,166.5595 L442.4995,146.9295" id="Stroke-209" stroke="#4F637A"></path>
                    <path d="M442.4995,146.9297 L408.4995,127.2997" id="Stroke-210" stroke="#4F637A"></path>
                    <path d="M612.4995,245.0791 L578.4995,225.4491" id="Stroke-211" stroke="#4F637A"></path>
                    <path d="M374.4995,107.6699 L340.4995,88.0399" id="Stroke-212" stroke="#4F637A"></path>
                    <path d="M408.4995,127.2998 L374.4995,107.6698" id="Stroke-213" stroke="#4F637A"></path>
                    <path d="M544.4995,205.8193 L510.4995,186.1893" id="Stroke-214" stroke="#4F637A"></path>
                    <path d="M578.4995,225.4492 L544.4995,205.8192" id="Stroke-216" stroke="#4F637A"></path>
                    <path d="M340.4995,88.04 L306.4995,68.41" id="Stroke-217" stroke="#4F637A"></path>
                    <path d="M544.4995,245.0791 L510.4995,225.4491" id="Stroke-218" stroke="#4F637A"></path>
                    <path d="M510.4995,225.4492 L476.4995,205.8192" id="Stroke-219" stroke="#4F637A"></path>
                    <path d="M578.4995,264.709 L544.4995,245.079" id="Stroke-220" stroke="#4F637A"></path>
                    <path d="M442.4995,186.1894 L408.4995,166.5594" id="Stroke-221" stroke="#4F637A"></path>
                    <path d="M408.4995,166.5595 L374.4995,146.9295" id="Stroke-222" stroke="#4F637A"></path>
                    <path d="M374.4995,146.9297 L340.4995,127.2997" id="Stroke-223" stroke="#4F637A"></path>
                    <path d="M306.4995,107.6699 L272.4995,88.0399" id="Stroke-224" stroke="#4F637A"></path>
                    <path d="M476.4995,205.8193 L442.4995,186.1893" id="Stroke-225" stroke="#4F637A"></path>
                    <path d="M340.4995,127.2998 L306.4995,107.6698" id="Stroke-226" stroke="#4F637A"></path>
                    <path d="M68.4995,284.3388 L102.4995,303.9688" id="Stroke-227" stroke="#4F637A"></path>
                    <path d="M102.4995,303.9687 L136.4995,323.5987" id="Stroke-228" stroke="#4F637A"></path>
                    <path d="M272.4995,402.1181 L238.4995,382.4881" id="Stroke-229" stroke="#4F637A"></path>
                    <path d="M238.4995,382.4883 L204.4995,362.8583" id="Stroke-230" stroke="#4F637A"></path>
                    <path d="M34.4994,264.709 L68.4994,284.339" id="Stroke-231" stroke="#4F637A"></path>
                    <path d="M0.4994,245.0791 L34.4994,264.7091" id="Stroke-232" stroke="#4F637A"></path>
                    <path d="M170.4995,343.2285 L136.4995,323.5985" id="Stroke-233" stroke="#4F637A"></path>
                    <path d="M204.4995,362.8584 L170.4995,343.2284" id="Stroke-234" stroke="#4F637A"></path>
                    <path d="M306.4995,421.748 L272.4995,402.118" id="Stroke-235" stroke="#4F637A"></path>
                    <path d="M102.4995,264.709 L136.4995,284.339" id="Stroke-236" stroke="#4F637A"></path>
                    <path d="M68.4995,245.0791 L102.4995,264.7091" id="Stroke-237" stroke="#4F637A"></path>
                    <path d="M306.4995,382.4883 L272.4995,362.8583" id="Stroke-238" stroke="#4F637A"></path>
                    <path d="M204.4995,323.5986 L170.4995,303.9686" id="Stroke-239" stroke="#4F637A"></path>
                    <path d="M34.4994,225.4492 L68.4994,245.0792" id="Stroke-240" stroke="#4F637A"></path>
                    <path d="M340.4995,402.1181 L306.4995,382.4881" id="Stroke-241" stroke="#4F637A"></path>
                    <path d="M170.4995,303.9687 L136.4995,284.3387" id="Stroke-242" stroke="#4F637A"></path>
                    <path d="M272.4995,362.8584 L238.4995,343.2284" id="Stroke-243" stroke="#4F637A"></path>
                    <path d="M238.4995,343.2285 L204.4995,323.5985" id="Stroke-244" stroke="#4F637A"></path>
                    <path d="M102.4995,225.4492 L136.4995,245.0792" id="Stroke-245" stroke="#4F637A"></path>
                    <path d="M238.4995,303.9687 L204.4995,284.3387" id="Stroke-246" stroke="#4F637A"></path>
                    <path d="M68.4995,205.8193 L102.4995,225.4493" id="Stroke-247" stroke="#4F637A"></path>
                    <path d="M306.4995,343.2285 L272.4995,323.5985" id="Stroke-248" stroke="#4F637A"></path>
                    <path d="M340.4995,362.8584 L306.4995,343.2284" id="Stroke-249" stroke="#4F637A"></path>
                    <path d="M170.4995,264.709 L136.4995,245.079" id="Stroke-250" stroke="#4F637A"></path>
                    <path d="M374.4995,382.4883 L340.4995,362.8583" id="Stroke-251" stroke="#4F637A"></path>
                    <path d="M272.4995,323.5986 L238.4995,303.9686" id="Stroke-252" stroke="#4F637A"></path>
                    <path d="M204.4995,284.3388 L170.4995,264.7088" id="Stroke-253" stroke="#4F637A"></path>
                    <path d="M238.4995,264.709 L204.4995,245.079" id="Stroke-254" stroke="#4F637A"></path>
                    <path d="M272.4995,284.3388 L238.4995,264.7088" id="Stroke-255" stroke="#4F637A"></path>
                    <path d="M408.4995,362.8584 L374.4995,343.2284" id="Stroke-256" stroke="#4F637A"></path>
                    <path d="M340.4995,323.5986 L306.4995,303.9686" id="Stroke-257" stroke="#4F637A"></path>
                    <path d="M374.4995,343.2285 L340.4995,323.5985" id="Stroke-258" stroke="#4F637A"></path>
                    <path d="M170.4995,225.4492 L136.4995,205.8192" id="Stroke-259" stroke="#4F637A"></path>
                    <path d="M306.4995,303.9687 L272.4995,284.3387" id="Stroke-260" stroke="#4F637A"></path>
                    <path d="M204.4995,245.0791 L170.4995,225.4491" id="Stroke-261" stroke="#4F637A"></path>
                    <path d="M102.4995,186.1894 L136.4995,205.8194" id="Stroke-262" stroke="#4F637A"></path>
                    <path d="M340.4995,166.5595 L306.4995,146.9295" id="Stroke-263" stroke="#4F637A"></path>
                    <path d="M510.4995,264.709 L476.4995,245.079" id="Stroke-264" stroke="#4F637A"></path>
                    <path d="M374.4995,186.1894 L340.4995,166.5594" id="Stroke-265" stroke="#4F637A"></path>
                    <path d="M544.4995,284.3388 L510.4995,264.7088" id="Stroke-266" stroke="#4F637A"></path>
                    <path d="M272.4995,127.2998 L238.4995,107.6698" id="Stroke-267" stroke="#4F637A"></path>
                    <path d="M442.4995,225.4492 L408.4995,205.8192" id="Stroke-268" stroke="#4F637A"></path>
                    <path d="M476.4995,245.0791 L442.4995,225.4491" id="Stroke-269" stroke="#4F637A"></path>
                    <path d="M306.4995,146.9297 L272.4995,127.2997" id="Stroke-270" stroke="#4F637A"></path>
                    <path d="M408.4995,205.8193 L374.4995,186.1893" id="Stroke-271" stroke="#4F637A"></path>
                    <path d="M510.4995,303.9687 L476.4995,284.3387" id="Stroke-272" stroke="#4F637A"></path>
                    <path d="M408.4995,245.0791 L374.4995,225.4491" id="Stroke-273" stroke="#4F637A"></path>
                    <path d="M238.4995,146.9297 L204.4995,127.2997" id="Stroke-274" stroke="#4F637A"></path>
                    <path d="M374.4995,225.4492 L340.4995,205.8192" id="Stroke-275" stroke="#4F637A"></path>
                    <path d="M476.4995,284.3388 L442.4995,264.7088" id="Stroke-276" stroke="#4F637A"></path>
                    <path d="M442.4995,264.709 L408.4995,245.079" id="Stroke-277" stroke="#4F637A"></path>
                    <path d="M272.4995,166.5595 L238.4995,146.9295" id="Stroke-278" stroke="#4F637A"></path>
                    <path d="M306.4995,186.1894 L272.4995,166.5594" id="Stroke-279" stroke="#4F637A"></path>
                    <path d="M340.4995,205.8193 L306.4995,186.1893" id="Stroke-280" stroke="#4F637A"></path>
                    <path d="M272.4995,205.8193 L238.4995,186.1893" id="Stroke-281" stroke="#4F637A"></path>
                    <path d="M204.4995,166.5595 L170.4995,146.9295" id="Stroke-282" stroke="#4F637A"></path>
                    <path d="M306.4995,225.4492 L272.4995,205.8192" id="Stroke-283" stroke="#4F637A"></path>
                    <path d="M374.4995,264.709 L340.4995,245.079" id="Stroke-284" stroke="#4F637A"></path>
                    <path d="M408.4995,284.3388 L374.4995,264.7088" id="Stroke-285" stroke="#4F637A"></path>
                    <path d="M442.4995,303.9687 L408.4995,284.3387" id="Stroke-286" stroke="#4F637A"></path>
                    <path d="M476.4995,323.5986 L442.4995,303.9686" id="Stroke-287" stroke="#4F637A"></path>
                    <path d="M340.4995,245.0791 L306.4995,225.4491" id="Stroke-288" stroke="#4F637A"></path>
                    <path d="M238.4995,186.1894 L204.4995,166.5594" id="Stroke-289" stroke="#4F637A"></path>
                    <path d="M238.4995,225.4492 L204.4995,205.8192" id="Stroke-290" stroke="#4F637A"></path>
                    <path d="M442.4995,343.2285 L408.4995,323.5985" id="Stroke-291" stroke="#4F637A"></path>
                    <path d="M272.4995,245.0791 L238.4995,225.4491" id="Stroke-292" stroke="#4F637A"></path>
                    <path d="M408.4995,323.5986 L374.4995,303.9686" id="Stroke-293" stroke="#4F637A"></path>
                    <path d="M340.4995,284.3388 L306.4995,264.7088" id="Stroke-294" stroke="#4F637A"></path>
                    <path d="M306.4995,264.709 L272.4995,245.079" id="Stroke-295" stroke="#4F637A"></path>
                    <path d="M374.4995,303.9687 L340.4995,284.3387" id="Stroke-296" stroke="#4F637A"></path>
                    <path d="M204.4995,205.8193 L170.4995,186.1893" id="Stroke-297" stroke="#4F637A"></path>
                    <path d="M170.4995,186.1894 L136.4995,166.5594" id="Stroke-298" stroke="#4F637A"></path>
                    <path d="M272.4995,205.8193 L306.4995,186.1893" id="Stroke-299" stroke="#4F637A"></path>
                    <path d="M340.4995,166.5595 L306.4995,186.1895" id="Stroke-300" stroke="#4F637A"></path>
                    <path d="M204.4995,245.0791 L170.4995,264.7091" id="Stroke-301" stroke="#4F637A"></path>
                    <path d="M136.4995,284.3388 L102.4995,303.9688" id="Stroke-302" stroke="#4F637A"></path>
                    <path d="M408.4995,127.2998 L374.4995,146.9298" id="Stroke-303" stroke="#4F637A"></path>
                    <path d="M340.4995,166.5595 L374.4995,146.9295" id="Stroke-304" stroke="#4F637A"></path>
                    <path d="M136.4995,284.3388 L170.4995,264.7088" id="Stroke-305" stroke="#4F637A"></path>
                    <path d="M272.4995,205.8193 L238.4995,225.4493" id="Stroke-306" stroke="#4F637A"></path>
                    <path d="M204.4995,245.0791 L238.4995,225.4491" id="Stroke-307" stroke="#4F637A"></path>
                    <path d="M204.4995,205.8193 L238.4995,186.1893" id="Stroke-308" stroke="#4F637A"></path>
                    <path d="M136.4995,245.0791 L170.4995,225.4491" id="Stroke-309" stroke="#4F637A"></path>
                    <path d="M204.4995,205.8193 L170.4995,225.4493" id="Stroke-310" stroke="#4F637A"></path>
                    <path d="M272.4995,166.5595 L238.4995,186.1895" id="Stroke-311" stroke="#4F637A"></path>
                    <path d="M68.4995,284.3388 L102.4995,264.7088" id="Stroke-312" stroke="#4F637A"></path>
                    <path d="M272.4995,166.5595 L306.4995,146.9295" id="Stroke-313" stroke="#4F637A"></path>
                    <path d="M340.4995,127.2998 L374.4995,107.6698" id="Stroke-314" stroke="#4F637A"></path>
                    <path d="M340.4995,127.2998 L306.4995,146.9298" id="Stroke-315" stroke="#4F637A"></path>
                    <path d="M136.4995,245.0791 L102.4995,264.7091" id="Stroke-316" stroke="#4F637A"></path>
                    <path d="M204.4995,166.5595 L238.4995,146.9295" id="Stroke-317" stroke="#4F637A"></path>
                    <path d="M272.4995,127.2998 L238.4995,146.9298" id="Stroke-318" stroke="#4F637A"></path>
                    <path d="M136.4995,205.8193 L170.4995,186.1893" id="Stroke-319" stroke="#4F637A"></path>
                    <path d="M136.4995,205.8193 L102.4995,225.4493" id="Stroke-320" stroke="#4F637A"></path>
                    <path d="M68.4995,245.0791 L102.4995,225.4491" id="Stroke-321" stroke="#4F637A"></path>
                    <path d="M272.4995,127.2998 L306.4995,107.6698" id="Stroke-322" stroke="#4F637A"></path>
                    <path d="M340.4995,88.04 L306.4995,107.67" id="Stroke-323" stroke="#4F637A"></path>
                    <path d="M68.4995,245.0791 L34.4995,264.7091" id="Stroke-324" stroke="#4F637A"></path>
                    <path d="M204.4995,166.5595 L170.4995,186.1895" id="Stroke-325" stroke="#4F637A"></path>
                    <path d="M204.4995,127.2998 L170.4995,146.9298" id="Stroke-326" stroke="#4F637A"></path>
                    <path d="M136.4995,166.5595 L170.4995,146.9295" id="Stroke-327" stroke="#4F637A"></path>
                    <path d="M0.4994,245.0791 L34.4994,225.4491" id="Stroke-328" stroke="#4F637A"></path>
                    <path d="M68.4995,205.8193 L102.4995,186.1893" id="Stroke-329" stroke="#4F637A"></path>
                    <path d="M68.4995,205.8193 L34.4995,225.4493" id="Stroke-330" stroke="#4F637A"></path>
                    <path d="M272.4995,88.04 L306.4995,68.41" id="Stroke-331" stroke="#4F637A"></path>
                    <path d="M204.4995,127.2998 L238.4995,107.6698" id="Stroke-332" stroke="#4F637A"></path>
                    <path d="M272.4995,88.04 L238.4995,107.67" id="Stroke-333" stroke="#4F637A"></path>
                    <path d="M136.4995,166.5595 L102.4995,186.1895" id="Stroke-334" stroke="#4F637A"></path>
                    <path d="M340.4995,323.5986 L306.4995,343.2286" id="Stroke-335" stroke="#4F637A"></path>
                    <path d="M272.4995,362.8584 L306.4995,343.2284" id="Stroke-336" stroke="#4F637A"></path>
                    <path d="M408.4995,284.3388 L374.4995,303.9688" id="Stroke-337" stroke="#4F637A"></path>
                    <path d="M340.4995,323.5986 L374.4995,303.9686" id="Stroke-338" stroke="#4F637A"></path>
                    <path d="M476.4995,245.0791 L442.4995,264.7091" id="Stroke-339" stroke="#4F637A"></path>
                    <path d="M408.4995,284.3388 L442.4995,264.7088" id="Stroke-340" stroke="#4F637A"></path>
                    <path d="M476.4995,245.0791 L510.4995,225.4491" id="Stroke-341" stroke="#4F637A"></path>
                    <path d="M544.4995,205.8193 L510.4995,225.4493" id="Stroke-342" stroke="#4F637A"></path>
                    <path d="M272.4995,362.8584 L238.4995,382.4884" id="Stroke-343" stroke="#4F637A"></path>
                    <path d="M408.4995,245.0791 L442.4995,225.4491" id="Stroke-344" stroke="#4F637A"></path>
                    <path d="M476.4995,205.8193 L442.4995,225.4493" id="Stroke-345" stroke="#4F637A"></path>
                    <path d="M204.4995,362.8584 L238.4995,343.2284" id="Stroke-346" stroke="#4F637A"></path>
                    <path d="M340.4995,284.3388 L374.4995,264.7088" id="Stroke-347" stroke="#4F637A"></path>
                    <path d="M408.4995,245.0791 L374.4995,264.7091" id="Stroke-348" stroke="#4F637A"></path>
                    <path d="M476.4995,205.8193 L510.4995,186.1893" id="Stroke-349" stroke="#4F637A"></path>
                    <path d="M272.4995,323.5986 L306.4995,303.9686" id="Stroke-350" stroke="#4F637A"></path>
                    <path d="M340.4995,284.3388 L306.4995,303.9688" id="Stroke-351" stroke="#4F637A"></path>
                    <path d="M272.4995,323.5986 L238.4995,343.2286" id="Stroke-352" stroke="#4F637A"></path>
                    <path d="M408.4995,205.8193 L442.4995,186.1893" id="Stroke-353" stroke="#4F637A"></path>
                    <path d="M204.4995,323.5986 L170.4995,343.2286" id="Stroke-354" stroke="#4F637A"></path>
                    <path d="M476.4995,166.5595 L442.4995,186.1895" id="Stroke-355" stroke="#4F637A"></path>
                    <path d="M272.4995,284.3388 L238.4995,303.9688" id="Stroke-356" stroke="#4F637A"></path>
                    <path d="M408.4995,205.8193 L374.4995,225.4493" id="Stroke-357" stroke="#4F637A"></path>
                    <path d="M272.4995,284.3388 L306.4995,264.7088" id="Stroke-358" stroke="#4F637A"></path>
                    <path d="M340.4995,245.0791 L306.4995,264.7091" id="Stroke-359" stroke="#4F637A"></path>
                    <path d="M340.4995,245.0791 L374.4995,225.4491" id="Stroke-360" stroke="#4F637A"></path>
                    <path d="M204.4995,323.5986 L238.4995,303.9686" id="Stroke-361" stroke="#4F637A"></path>
                    <path d="M136.4995,323.5986 L170.4995,303.9686" id="Stroke-362" stroke="#4F637A"></path>
                    <path d="M408.4995,166.5595 L442.4995,146.9295" id="Stroke-363" stroke="#4F637A"></path>
                    <path d="M272.4995,245.0791 L238.4995,264.7091" id="Stroke-364" stroke="#4F637A"></path>
                    <path d="M204.4995,284.3388 L238.4995,264.7088" id="Stroke-365" stroke="#4F637A"></path>
                    <path d="M204.4995,284.3388 L170.4995,303.9688" id="Stroke-366" stroke="#4F637A"></path>
                    <path d="M408.4995,166.5595 L374.4995,186.1895" id="Stroke-367" stroke="#4F637A"></path>
                    <path d="M340.4995,205.8193 L374.4995,186.1893" id="Stroke-368" stroke="#4F637A"></path>
                    <path d="M340.4995,205.8193 L306.4995,225.4493" id="Stroke-369" stroke="#4F637A"></path>
                    <path d="M272.4995,245.0791 L306.4995,225.4491" id="Stroke-370" stroke="#4F637A"></path>
                    <path d="M544.4995,245.0791 L510.4995,264.7091" id="Stroke-371" stroke="#4F637A"></path>
                    <path d="M476.4995,284.3388 L510.4995,264.7088" id="Stroke-372" stroke="#4F637A"></path>
                    <path d="M272.4995,402.1181 L306.4995,382.4881" id="Stroke-373" stroke="#4F637A"></path>
                    <path d="M340.4995,362.8584 L306.4995,382.4884" id="Stroke-374" stroke="#4F637A"></path>
                    <path d="M408.4995,323.5986 L374.4995,343.2286" id="Stroke-375" stroke="#4F637A"></path>
                    <path d="M544.4995,245.0791 L578.4995,225.4491" id="Stroke-376" stroke="#4F637A"></path>
                    <path d="M340.4995,362.8584 L374.4995,343.2284" id="Stroke-377" stroke="#4F637A"></path>
                    <path d="M476.4995,284.3388 L442.4995,303.9688" id="Stroke-378" stroke="#4F637A"></path>
                    <path d="M408.4995,323.5986 L442.4995,303.9686" id="Stroke-379" stroke="#4F637A"></path>
                    <path d="M544.4995,284.3388 L578.4995,264.7088" id="Stroke-380" stroke="#4F637A"></path>
                    <path d="M408.4995,362.8584 L442.4995,343.2284" id="Stroke-381" stroke="#4F637A"></path>
                    <path d="M612.4995,245.0791 L578.4995,264.7091" id="Stroke-382" stroke="#4F637A"></path>
                    <path d="M408.4995,362.8584 L374.4995,382.4884" id="Stroke-383" stroke="#4F637A"></path>
                    <path d="M340.4995,402.1181 L374.4995,382.4881" id="Stroke-384" stroke="#4F637A"></path>
                    <path d="M476.4995,323.5986 L442.4995,343.2286" id="Stroke-385" stroke="#4F637A"></path>
                    <path d="M340.4995,402.1181 L306.4995,421.7481" id="Stroke-386" stroke="#4F637A"></path>
                    <path d="M544.4995,284.3388 L510.4995,303.9688" id="Stroke-387" stroke="#4F637A"></path>
                    <path d="M476.4995,323.5986 L510.4995,303.9686" id="Stroke-388" stroke="#4F637A"></path>
                    <path d="M272.6088,402.0605 L289.6088,411.8755" id="Stroke-389" stroke="#4F637A"></path>
                    <path d="M306.6088,421.6904 L289.6088,411.8764" id="Stroke-390" stroke="#4F637A"></path>
                    <path d="M255.6088,392.2461 L272.6088,402.0601" id="Stroke-391" stroke="#4F637A"></path>
                    <path d="M153.6088,333.3564 L136.6088,323.5414" id="Stroke-392" stroke="#4F637A"></path>
                    <path d="M238.6088,382.4306 L255.6088,392.2456" id="Stroke-393" stroke="#4F637A"></path>
                    <path d="M17.6088,254.8369 L34.6088,264.6509" id="Stroke-394" stroke="#4F637A"></path>
                    <path d="M238.6088,382.4306 L204.6088,362.8006" id="Stroke-395" stroke="#4F637A"></path>
                    <path d="M102.6088,303.9111 L136.6088,323.5411" id="Stroke-396" stroke="#4F637A"></path>
                    <path d="M170.6088,343.1709 L153.6088,333.3569" id="Stroke-397" stroke="#4F637A"></path>
                    <path d="M102.6088,303.9111 L85.6088,294.0971" id="Stroke-398" stroke="#4F637A"></path>
                    <path d="M34.6088,264.6513 L68.6088,284.2813" id="Stroke-399" stroke="#4F637A"></path>
                    <path d="M0.6088,245.0215 L17.6088,254.8365" id="Stroke-400" stroke="#4F637A"></path>
                    <path d="M170.6088,343.1709 L204.6088,362.8009" id="Stroke-401" stroke="#4F637A"></path>
                    <path d="M85.6088,294.0967 L68.6088,284.2817" id="Stroke-402" stroke="#4F637A"></path>
                    <path d="M255.6088,392.207 L255.6088,392.246" id="Stroke-406" stroke="#4F637A"></path>
                    <path d="M340.4995,402.0605 L323.4995,411.8755" id="Stroke-407" stroke="#4F637A"></path>
                    <path d="M306.4995,421.6904 L323.4995,411.8764" id="Stroke-408" stroke="#4F637A"></path>
                    <path d="M357.4995,392.2461 L340.4995,402.0601" id="Stroke-409" stroke="#4F637A"></path>
                    <path d="M459.4995,333.3564 L476.4995,323.5414" id="Stroke-410" stroke="#4F637A"></path>
                    <path d="M374.4995,382.4306 L357.4995,392.2456" id="Stroke-411" stroke="#4F637A"></path>
                    <path d="M595.4995,254.8369 L578.4995,264.6509" id="Stroke-412" stroke="#4F637A"></path>
                    <path d="M374.4995,382.4306 L408.4995,362.8006" id="Stroke-413" stroke="#4F637A"></path>
                    <path d="M510.4995,303.9111 L476.4995,323.5411" id="Stroke-414" stroke="#4F637A"></path>
                    <path d="M442.4995,343.1709 L459.4995,333.3569" id="Stroke-415" stroke="#4F637A"></path>
                    <path d="M510.4995,303.9111 L527.4995,294.0971" id="Stroke-416" stroke="#4F637A"></path>
                    <path d="M578.4995,264.6513 L544.4995,284.2813" id="Stroke-417" stroke="#4F637A"></path>
                    <path d="M612.4995,245.0215 L595.4995,254.8365" id="Stroke-418" stroke="#4F637A"></path>
                    <path d="M442.4995,343.1709 L408.4995,362.8009" id="Stroke-419" stroke="#4F637A"></path>
                    <path d="M527.4995,294.0967 L544.4995,284.2817" id="Stroke-420" stroke="#4F637A"></path>
                    <path d="M357.4995,392.207 L357.4995,392.246" id="Stroke-424" stroke="#4F637A"></path>
                    <path d="M323.4995,411.8759 L323.4995,411.8369" id="Stroke-425" stroke="#4F637A"></path>
                    <g id="Group-22" transform="translate(610.000000, 61.000000)">
                        <g id="Group-428" transform="translate(67.000000, 99.780000)">
                            <mask id="mask-3" fill="white">
                                <use xlink:href="#path-2"></use>
                            </mask>
                            <g id="Clip-427"></g>
                            <path d="M0.9994,0.1389 L34.9994,19.7689" id="Stroke-426" stroke="#4F637A" mask="url(#mask-3)"></path>
                        </g>
                        <path d="M33.9995,80.289 L67.9995,99.919" id="Stroke-429" stroke="#4F637A"></path>
                        <path d="M0.0004,60.6592 L33.9994,80.2892" id="Stroke-430" stroke="#4F637A"></path>
                        <g id="Group-433" transform="translate(67.000000, 59.780000)">
                            <mask id="mask-5" fill="white">
                                <use xlink:href="#path-4"></use>
                            </mask>
                            <g id="Clip-432"></g>
                            <path d="M0.9994,0.8792 L34.9994,20.5092" id="Stroke-431" stroke="#4F637A" mask="url(#mask-5)"></path>
                        </g>
                        <path d="M33.9995,41.0293 L67.9995,60.6593" id="Stroke-434" stroke="#4F637A"></path>
                        <g id="Group-444" transform="translate(67.000000, 20.780000)">
                            <g id="Group-437" transform="translate(1.000000, 0.000000)">
                                <mask id="mask-7" fill="white">
                                    <use xlink:href="#path-6"></use>
                                </mask>
                                <g id="Clip-436"></g>
                                <path d="M0.0004,0.6194 L34.0004,20.2494" id="Stroke-435" stroke="#4F637A" mask="url(#mask-7)"></path>
                            </g>
                            <g id="Group-440" transform="translate(0.000000, 59.000000)">
                                <mask id="mask-9" fill="white">
                                    <use xlink:href="#path-8"></use>
                                </mask>
                                <g id="Clip-439"></g>
                                <path d="M0.9994,20.1389 L34.9994,0.5089" id="Stroke-438" stroke="#4F637A" mask="url(#mask-9)"></path>
                            </g>
                            <g id="Group-443" transform="translate(0.000000, 20.000000)">
                                <mask id="mask-11" fill="white">
                                    <use xlink:href="#path-10"></use>
                                </mask>
                                <g id="Clip-442"></g>
                                <path d="M0.9994,19.8792 L35.0004,0.2492" id="Stroke-441" stroke="#4F637A" mask="url(#mask-11)"></path>
                            </g>
                        </g>
                        <path d="M67.9994,60.6592 L33.9994,80.2892" id="Stroke-445" stroke="#4F637A"></path>
                        <path d="M0.0004,60.6592 L33.9994,41.0292" id="Stroke-446" stroke="#4F637A"></path>
                        <g id="Group-449" transform="translate(68.000000, 0.780000)">
                            <mask id="mask-13" fill="white">
                                <use xlink:href="#path-12"></use>
                            </mask>
                            <g id="Clip-448"></g>
                            <path d="M0.0004,20.6194 L34.0004,0.9894" id="Stroke-447" stroke="#4F637A" mask="url(#mask-13)"></path>
                        </g>
                        <path d="M68.0004,21.3994 L33.9994,41.0294" id="Stroke-450" stroke="#4F637A"></path>
                        <path d="M17.1098,70.4165 L34.1098,80.2315" id="Stroke-451" stroke="#4F637A"></path>
                        <g id="Group-454" transform="translate(85.000000, 108.780000)">
                            <mask id="mask-15" fill="white">
                                <use xlink:href="#path-14"></use>
                            </mask>
                            <g id="Clip-453"></g>
                            <path d="M17.1097,10.7112 L0.1097,0.8962" id="Stroke-452" stroke="#4F637A" mask="url(#mask-15)"></path>
                        </g>
                        <path d="M34.1098,80.2314 L68.1098,99.8614" id="Stroke-455" stroke="#4F637A"></path>
                        <path d="M0.1098,60.6015 L17.1098,70.4165" id="Stroke-456" stroke="#4F637A"></path>
                        <path d="M85.1097,109.6762 L68.1097,99.8612" id="Stroke-457" stroke="#4F637A"></path>
                    </g>
                    <g id="Group-23" transform="translate(474.000000, 283.000000)">
                        <path d="M0.0004,119.0898 L34.0004,138.7198" id="Stroke-460" stroke="#4F637A"></path>
                        <path d="M68.0004,158.3496 L34.0004,138.7196" id="Stroke-461" stroke="#4F637A"></path>
                        <g id="Group-464" transform="translate(68.000000, 157.780000)">
                            <mask id="mask-17" fill="white">
                                <use xlink:href="#path-16"></use>
                            </mask>
                            <g id="Clip-463"></g>
                            <path d="M34.0004,20.1995 L0.0004,0.5695" id="Stroke-462" stroke="#4F637A" mask="url(#mask-17)"></path>
                        </g>
                        <path d="M102.0004,138.7197 L68.0004,119.0897" id="Stroke-465" stroke="#4F637A"></path>
                        <path d="M68.0004,119.0898 L34.0004,99.4598" id="Stroke-466" stroke="#4F637A"></path>
                        <g id="Group-469" transform="translate(136.000000, 157.780000)" stroke="#4F637A">
                            <path d="M34.0004,20.1995 L0.0004,0.5695" id="Stroke-467"></path>
                        </g>
                        <path d="M136.0004,158.3496 L102.0004,138.7196" id="Stroke-470" stroke="#4F637A"></path>
                        <path d="M136.0004,119.0898 L102.0004,99.4598" id="Stroke-471" stroke="#4F637A"></path>
                        <path d="M204.0004,158.3496 L170.0004,138.7196" id="Stroke-472" stroke="#4F637A"></path>
                        <g id="Group-475" transform="translate(204.000000, 157.780000)" stroke="#4F637A">
                            <path d="M34.0004,20.1995 L0.0004,0.5695" id="Stroke-473"></path>
                        </g>
                        <path d="M170.0004,138.7197 L136.0004,119.0897" id="Stroke-476" stroke="#4F637A"></path>
                        <path d="M102.0004,99.4599 L68.0004,79.8299" id="Stroke-477" stroke="#4F637A"></path>
                        <path d="M136.0004,79.83 L102.0004,60.2" id="Stroke-478" stroke="#4F637A"></path>
                        <path d="M170.0004,99.4599 L136.0004,79.8299" id="Stroke-479" stroke="#4F637A"></path>
                        <g id="Group-482" transform="translate(204.000000, 118.780000)">
                            <mask id="mask-19" fill="white">
                                <use xlink:href="#path-18"></use>
                            </mask>
                            <g id="Clip-481"></g>
                            <path d="M34.0004,19.9397 L0.0004,0.3097" id="Stroke-480" stroke="#4F637A" mask="url(#mask-19)"></path>
                        </g>
                        <path d="M204.0004,119.0898 L170.0004,99.4598" id="Stroke-483" stroke="#4F637A"></path>
                        <g id="Group-486" transform="translate(204.000000, 0.780000)">
                            <mask id="mask-21" fill="white">
                                <use xlink:href="#path-20"></use>
                            </mask>
                            <g id="Clip-485"></g>
                            <path d="M34.0004,20.1604 L0.0004,0.5304" id="Stroke-484" stroke="#4F637A" mask="url(#mask-21)"></path>
                        </g>
                        <path d="M204.0004,40.5703 L170.0004,20.9403" id="Stroke-487" stroke="#4F637A"></path>
                        <g id="Group-490" transform="translate(204.000000, 39.780000)">
                            <mask id="mask-23" fill="white">
                                <use xlink:href="#path-22"></use>
                            </mask>
                            <g id="Clip-489"></g>
                            <path d="M34.0004,20.4202 L0.0004,0.7902" id="Stroke-488" stroke="#4F637A" mask="url(#mask-23)"></path>
                        </g>
                        <path d="M170.0004,60.2002 L136.0004,40.5702" id="Stroke-491" stroke="#4F637A"></path>
                        <g id="Group-494" transform="translate(204.000000, 79.780000)">
                            <mask id="mask-25" fill="white">
                                <use xlink:href="#path-24"></use>
                            </mask>
                            <g id="Clip-493"></g>
                            <path d="M34.0004,19.6799 L0.0004,0.0499" id="Stroke-492" stroke="#4F637A" mask="url(#mask-25)"></path>
                        </g>
                        <path d="M204.0004,79.83 L170.0004,60.2" id="Stroke-495" stroke="#4F637A"></path>
                        <path d="M170.0004,20.9404 L204.0004,1.3104" id="Stroke-496" stroke="#4F637A"></path>
                        <path d="M102.0004,60.2002 L68.0004,79.8302" id="Stroke-497" stroke="#4F637A"></path>
                        <path d="M34.0004,99.4599 L0.0004,119.0899" id="Stroke-498" stroke="#4F637A"></path>
                        <path d="M34.0004,99.4599 L68.0004,79.8299" id="Stroke-499" stroke="#4F637A"></path>
                        <path d="M170.0004,20.9404 L136.0004,40.5704" id="Stroke-500" stroke="#4F637A"></path>
                        <path d="M102.0004,60.2002 L136.0004,40.5702" id="Stroke-501" stroke="#4F637A"></path>
                        <g id="Group-511" transform="translate(102.000000, 137.780000)">
                            <g id="Group-504" transform="translate(102.000000, 0.000000)">
                                <mask id="mask-27" fill="white">
                                    <use xlink:href="#path-26"></use>
                                </mask>
                                <g id="Clip-503"></g>
                                <path d="M34.0004,0.9397 L0.0004,20.5697" id="Stroke-502" stroke="#4F637A" mask="url(#mask-27)"></path>
                            </g>
                            <g id="Group-507" transform="translate(68.000000, 20.000000)" stroke="#4F637A">
                                <path d="M0.0004,20.1995 L34.0004,0.5695" id="Stroke-505"></path>
                            </g>
                            <g id="Group-510" transform="translate(0.000000, 20.000000)" stroke="#4F637A">
                                <path d="M0.0004,20.1995 L34.0004,0.5695" id="Stroke-508"></path>
                            </g>
                        </g>
                        <path d="M170.0004,138.7197 L204.0004,119.0897" id="Stroke-512" stroke="#4F637A"></path>
                        <g id="Group-515" transform="translate(204.000000, 98.780000)">
                            <mask id="mask-29" fill="white">
                                <use xlink:href="#path-28"></use>
                            </mask>
                            <g id="Clip-514"></g>
                            <path d="M34.0004,0.6799 L0.0004,20.3099" id="Stroke-513" stroke="#4F637A" mask="url(#mask-29)"></path>
                        </g>
                        <path d="M170.0004,138.7197 L136.0004,158.3497" id="Stroke-516" stroke="#4F637A"></path>
                        <path d="M102.0004,138.7197 L68.0004,158.3497" id="Stroke-517" stroke="#4F637A"></path>
                        <path d="M170.0004,99.4599 L136.0004,119.0899" id="Stroke-518" stroke="#4F637A"></path>
                        <path d="M170.0004,99.4599 L204.0004,79.8299" id="Stroke-519" stroke="#4F637A"></path>
                        <g id="Group-522" transform="translate(204.000000, 59.780000)">
                            <mask id="mask-31" fill="white">
                                <use xlink:href="#path-30"></use>
                            </mask>
                            <g id="Clip-521"></g>
                            <path d="M34.0004,0.4202 L0.0004,20.0502" id="Stroke-520" stroke="#4F637A" mask="url(#mask-31)"></path>
                        </g>
                        <path d="M102.0004,138.7197 L136.0004,119.0897" id="Stroke-523" stroke="#4F637A"></path>
                        <path d="M34.0004,138.7197 L68.0004,119.0897" id="Stroke-524" stroke="#4F637A"></path>
                        <path d="M170.0004,60.2002 L136.0004,79.8302" id="Stroke-525" stroke="#4F637A"></path>
                        <path d="M102.0004,99.4599 L136.0004,79.8299" id="Stroke-526" stroke="#4F637A"></path>
                        <path d="M102.0004,99.4599 L68.0004,119.0899" id="Stroke-527" stroke="#4F637A"></path>
                        <g id="Group-530" transform="translate(204.000000, 20.780000)">
                            <mask id="mask-33" fill="white">
                                <use xlink:href="#path-32"></use>
                            </mask>
                            <g id="Clip-529"></g>
                            <path d="M34.0004,0.1604 L0.0004,19.7904" id="Stroke-528" stroke="#4F637A" mask="url(#mask-33)"></path>
                        </g>
                        <path d="M170.0004,60.2002 L204.0004,40.5702" id="Stroke-531" stroke="#4F637A"></path>
                        <path d="M51.1098,148.4765 L34.1098,138.6625" id="Stroke-532" stroke="#4F637A"></path>
                        <path d="M0.1098,119.0322 L34.1098,138.6622" id="Stroke-533" stroke="#4F637A"></path>
                        <path d="M68.1098,158.292 L51.1098,148.477" id="Stroke-534" stroke="#4F637A"></path>
                        <g id="Group-537" transform="translate(68.000000, 157.780000)" stroke="#4F637A">
                            <path d="M0.1098,0.512 L34.1098,20.142" id="Stroke-535"></path>
                        </g>
                    </g>
                    <polygon id="Fill-542" points="409.614 223.402 306.59 163.902 203.284 223.608 306.59 282.902"></polygon>
                    <polygon id="Fill-544" points="409.614 125.781 306.59 66.281 203.284 125.988 306.59 185.281"></polygon>
                    <polygon id="Stroke-546" fill-opacity="0.45" fill="#000000" points="429.269454 135 306.334445 64 183.060546 135.247008 306.334445 206"></polygon>
                    <polygon id="Stroke-546" stroke="#5C4EE5" stroke-width="3" points="409.33 125.5 306.307 66 203 125.707 306.307 185"></polygon>
                    <polygon id="Fill-547" points="409.645 106.059 306.621 46.559 203.921 105.708 306.622 165.56"></polygon>
                    <polygon id="Stroke-549" stroke="#7C8797" stroke-width="3" points="409.645 106.0591 306.621 46.5591 203.921 105.7081 306.622 165.5591"></polygon>
                    <polygon id="Fill-550" points="409.645 86.337 306.622 145.837 203.921 86.556 306.621 26.837"></polygon>
                    <polygon id="Stroke-552" stroke="#25BA81" stroke-width="3" points="409.645 86.3369 306.622 145.8369 203.921 86.5559 306.621 26.8369"></polygon>
                    <path d="M409.5,60.5 L409.5,126.5" id="Line-3" stroke="#CA2171" stroke-width="3" stroke-linecap="square"></path>
                    <polyline id="Fill-553" fill="#000000" points="409.6606 66.0844 306.6036 125.5844 203.9036 66.3034 306.6026 6.5844 396.8456 58.6854"></polyline>
                    <g id="Group-842" transform="translate(203.000000, 1.780000)" fill="#000000">
                        <polygon id="Fill-554" points="104.0278 72.8137 99.4428 75.4607 104.0278 78.1077 108.6128 75.4607"></polygon>
                        <polygon id="Fill-556" points="104.0278 62.5422 99.4428 65.1892 104.0278 67.8362 108.6128 65.1892"></polygon>
                        <polygon id="Fill-558" points="112.9828 77.9836 108.3978 80.6306 112.9828 83.2776 117.5678 80.6306"></polygon>
                        <polygon id="Fill-560" points="112.9828 67.7122 108.3978 70.3592 112.9828 73.0062 117.5678 70.3592"></polygon>
                        <polygon id="Fill-562" points="104.0278 83.1536 99.4428 85.8006 104.0278 88.4476 108.6128 85.8006"></polygon>
                        <polygon id="Fill-564" points="112.9828 88.324 108.3978 90.971 112.9828 93.618 117.5678 90.971"></polygon>
                        <polygon id="Fill-566" points="104.0278 93.4939 99.4428 96.1409 104.0278 98.7879 108.6128 96.1409"></polygon>
                        <polygon id="Fill-568" points="112.9828 98.6638 108.3978 101.3108 112.9828 103.9578 117.5678 101.3108"></polygon>
                        <polygon id="Fill-570" points="104.0278 103.8337 99.4428 106.4807 104.0278 109.1277 108.6128 106.4807"></polygon>
                        <polygon id="Fill-572" points="112.9828 109.0037 108.3978 111.6507 112.9828 114.2977 117.5678 111.6507"></polygon>
                        <polygon id="Fill-574" points="121.9379 83.1536 117.3529 85.8006 121.9379 88.4476 126.5219 85.8006"></polygon>
                        <polygon id="Fill-576" points="121.9379 72.8137 117.3529 75.4607 121.9379 78.1077 126.5219 75.4607"></polygon>
                        <polygon id="Fill-578" points="130.892 88.324 126.307 90.971 130.892 93.618 135.477 90.971"></polygon>
                        <polygon id="Fill-580" points="148.8012 88.324 144.2172 90.971 148.8012 93.618 153.3862 90.971"></polygon>
                        <polygon id="Fill-582" points="130.892 77.9836 126.307 80.6306 130.892 83.2776 135.477 80.6306"></polygon>
                        <polygon id="Fill-584" points="121.9379 93.4939 117.3529 96.1409 121.9379 98.7879 126.5219 96.1409"></polygon>
                        <polygon id="Fill-586" points="130.892 98.6638 126.307 101.3108 130.892 103.9578 135.477 101.3108"></polygon>
                        <polygon id="Fill-588" points="121.9379 103.8337 117.3529 106.4807 121.9379 109.1277 126.5219 106.4807"></polygon>
                        <polygon id="Fill-590" points="139.8471 93.4939 135.2621 96.1409 139.8471 98.7879 144.4321 96.1409"></polygon>
                        <polygon id="Fill-592" points="139.8471 83.1536 135.2621 85.8006 139.8471 88.4476 144.4321 85.8006"></polygon>
                        <polygon id="Fill-594" points="104.0278 114.1736 99.4428 116.8206 104.0278 119.4676 108.6128 116.8206"></polygon>
                        <polygon id="Fill-596" points="77.1635 88.324 72.5795 90.971 77.1635 93.618 81.7485 90.971"></polygon>
                        <polygon id="Fill-598" points="59.1664 88.324 54.5814 90.971 59.1664 93.618 63.7514 90.971"></polygon>
                        <polygon id="Fill-600" points="77.1635 77.9836 72.5795 80.6306 77.1635 83.2776 81.7485 80.6306"></polygon>
                        <polygon id="Fill-602" points="68.2094 93.4939 63.6244 96.1409 68.2094 98.7879 72.7944 96.1409"></polygon>
                        <polygon id="Fill-604" points="68.2094 83.1536 63.6244 85.8006 68.2094 88.4476 72.7944 85.8006"></polygon>
                        <polygon id="Fill-606" points="95.0737 77.9836 90.4887 80.6306 95.0737 83.2776 99.6587 80.6306"></polygon>
                        <polygon id="Fill-608" points="95.0737 67.7122 90.4887 70.3592 95.0737 73.0062 99.6587 70.3592"></polygon>
                        <polygon id="Fill-610" points="86.1186 83.1536 81.5336 85.8006 86.1186 88.4476 90.7036 85.8006"></polygon>
                        <polygon id="Fill-612" points="86.1186 72.8137 81.5336 75.4607 86.1186 78.1077 90.7036 75.4607"></polygon>
                        <polygon id="Fill-614" points="95.0737 88.324 90.4887 90.971 95.0737 93.618 99.6587 90.971"></polygon>
                        <polygon id="Fill-616" points="86.1186 93.4939 81.5336 96.1409 86.1186 98.7879 90.7036 96.1409"></polygon>
                        <polygon id="Fill-618" points="77.1635 98.6638 72.5795 101.3108 77.1635 103.9578 81.7485 101.3108"></polygon>
                        <polygon id="Fill-620" points="86.1186 103.8337 81.5336 106.4807 86.1186 109.1277 90.7036 106.4807"></polygon>
                        <polygon id="Fill-622" points="95.0737 98.6638 90.4887 101.3108 95.0737 103.9578 99.6587 101.3108"></polygon>
                        <polygon id="Fill-624" points="95.0737 109.0037 90.4887 111.6507 95.0737 114.2977 99.6587 111.6507"></polygon>
                        <polygon id="Fill-626" points="157.5766 41.8962 152.9916 44.5432 157.5766 47.1902 162.1616 44.5432"></polygon>
                        <polygon id="Fill-628" points="157.5766 31.6248 152.9916 34.2718 157.5766 36.9188 162.1616 34.2718"></polygon>
                        <polygon id="Fill-630" points="166.5317 47.0662 161.9467 49.7132 166.5317 52.3602 171.1157 49.7132"></polygon>
                        <polygon id="Fill-632" points="166.5317 36.7947 161.9467 39.4417 166.5317 42.0887 171.1157 39.4417"></polygon>
                        <polygon id="Fill-634" points="157.5766 52.2366 152.9916 54.8836 157.5766 57.5306 162.1616 54.8836"></polygon>
                        <polygon id="Fill-636" points="166.5317 57.4065 161.9467 60.0535 166.5317 62.7005 171.1157 60.0535"></polygon>
                        <polygon id="Fill-638" points="157.5766 62.5764 152.9916 65.2234 157.5766 67.8704 162.1616 65.2234"></polygon>
                        <polygon id="Fill-640" points="166.5317 67.7463 161.9467 70.3933 166.5317 73.0403 171.1157 70.3933"></polygon>
                        <polygon id="Fill-642" points="157.5766 72.9163 152.9916 75.5633 157.5766 78.2103 162.1616 75.5633"></polygon>
                        <polygon id="Fill-644" points="166.5317 78.0862 161.9467 80.7332 166.5317 83.3802 171.1157 80.7332"></polygon>
                        <polygon id="Fill-646" points="175.4858 52.2366 170.9008 54.8836 175.4858 57.5306 180.0708 54.8836"></polygon>
                        <polygon id="Fill-648" points="175.4858 41.8962 170.9008 44.5432 175.4858 47.1902 180.0708 44.5432"></polygon>
                        <polygon id="Fill-650" points="184.4409 57.4065 179.8559 60.0535 184.4409 62.7005 189.0259 60.0535"></polygon>
                        <polygon id="Fill-652" points="202.35 57.4065 197.765 60.0535 202.35 62.7005 206.935 60.0535"></polygon>
                        <polygon id="Fill-654" points="184.4409 47.0662 179.8559 49.7132 184.4409 52.3602 189.0259 49.7132"></polygon>
                        <polygon id="Fill-656" points="175.4858 62.5764 170.9008 65.2234 175.4858 67.8704 180.0708 65.2234"></polygon>
                        <polygon id="Fill-658" points="184.4409 67.7463 179.8559 70.3933 184.4409 73.0403 189.0259 70.3933"></polygon>
                        <polygon id="Fill-660" points="175.4858 72.9163 170.9008 75.5633 175.4858 78.2103 180.0708 75.5633"></polygon>
                        <polygon id="Fill-662" points="193.395 62.5764 188.811 65.2234 193.395 67.8704 197.98 65.2234"></polygon>
                        <polygon id="Fill-664" points="193.395 52.2366 188.811 54.8836 193.395 57.5306 197.98 54.8836"></polygon>
                        <polygon id="Fill-666" points="157.5766 83.2566 152.9916 85.9036 157.5766 88.5506 162.1616 85.9036"></polygon>
                        <polygon id="Fill-668" points="130.7123 57.4065 126.1273 60.0535 130.7123 62.7005 135.2973 60.0535"></polygon>
                        <polygon id="Fill-670" points="112.7153 57.4065 108.1303 60.0535 112.7153 62.7005 117.3003 60.0535"></polygon>
                        <polygon id="Fill-672" points="130.7123 47.0662 126.1273 49.7132 130.7123 52.3602 135.2973 49.7132"></polygon>
                        <polygon id="Fill-674" points="121.7573 62.5764 117.1733 65.2234 121.7573 67.8704 126.3423 65.2234"></polygon>
                        <polygon id="Fill-676" points="121.7573 52.2366 117.1733 54.8836 121.7573 57.5306 126.3423 54.8836"></polygon>
                        <polygon id="Fill-678" points="148.6215 47.0662 144.0375 49.7132 148.6215 52.3602 153.2065 49.7132"></polygon>
                        <polygon id="Fill-680" points="148.6215 36.7947 144.0375 39.4417 148.6215 42.0887 153.2065 39.4417"></polygon>
                        <polygon id="Fill-682" points="139.6674 52.2366 135.0824 54.8836 139.6674 57.5306 144.2524 54.8836"></polygon>
                        <polygon id="Fill-684" points="139.6674 41.8962 135.0824 44.5432 139.6674 47.1902 144.2524 44.5432"></polygon>
                        <polygon id="Fill-686" points="148.6215 57.4065 144.0375 60.0535 148.6215 62.7005 153.2065 60.0535"></polygon>
                        <polygon id="Fill-688" points="139.6674 62.5764 135.0824 65.2234 139.6674 67.8704 144.2524 65.2234"></polygon>
                        <polygon id="Fill-690" points="130.7123 67.7463 126.1273 70.3933 130.7123 73.0403 135.2973 70.3933"></polygon>
                        <polygon id="Fill-692" points="139.6674 72.9163 135.0824 75.5633 139.6674 78.2103 144.2524 75.5633"></polygon>
                        <polygon id="Fill-694" points="148.6215 67.7463 144.0375 70.3933 148.6215 73.0403 153.2065 70.3933"></polygon>
                        <polygon id="Fill-696" points="148.6215 78.0862 144.0375 80.7332 148.6215 83.3802 153.2065 80.7332"></polygon>
                        <polygon id="Fill-698" points="50.0766 41.8962 45.4916 44.5432 50.0766 47.1902 54.6606 44.5432"></polygon>
                        <polygon id="Fill-700" points="50.0766 31.6248 45.4916 34.2718 50.0766 36.9188 54.6606 34.2718"></polygon>
                        <polygon id="Fill-702" points="59.0307 47.0662 54.4457 49.7132 59.0307 52.3602 63.6157 49.7132"></polygon>
                        <polygon id="Fill-704" points="59.0307 36.7947 54.4457 39.4417 59.0307 42.0887 63.6157 39.4417"></polygon>
                        <polygon id="Fill-706" points="50.0766 52.2366 45.4916 54.8836 50.0766 57.5306 54.6606 54.8836"></polygon>
                        <polygon id="Fill-708" points="59.0307 57.4065 54.4457 60.0535 59.0307 62.7005 63.6157 60.0535"></polygon>
                        <polygon id="Fill-710" points="50.0766 62.5764 45.4916 65.2234 50.0766 67.8704 54.6606 65.2234"></polygon>
                        <polygon id="Fill-712" points="59.0307 67.7463 54.4457 70.3933 59.0307 73.0403 63.6157 70.3933"></polygon>
                        <polygon id="Fill-714" points="50.0766 72.9163 45.4916 75.5633 50.0766 78.2103 54.6606 75.5633"></polygon>
                        <polygon id="Fill-716" points="59.0307 78.0862 54.4457 80.7332 59.0307 83.3802 63.6157 80.7332"></polygon>
                        <polygon id="Fill-718" points="67.9858 52.2366 63.4008 54.8836 67.9858 57.5306 72.5708 54.8836"></polygon>
                        <polygon id="Fill-720" points="67.9858 41.8962 63.4008 44.5432 67.9858 47.1902 72.5708 44.5432"></polygon>
                        <polygon id="Fill-722" points="76.9399 57.4065 72.3559 60.0535 76.9399 62.7005 81.5249 60.0535"></polygon>
                        <polygon id="Fill-724" points="94.85 57.4065 90.265 60.0535 94.85 62.7005 99.435 60.0535"></polygon>
                        <polygon id="Fill-726" points="76.9399 47.0662 72.3559 49.7132 76.9399 52.3602 81.5249 49.7132"></polygon>
                        <polygon id="Fill-728" points="67.9858 62.5764 63.4008 65.2234 67.9858 67.8704 72.5708 65.2234"></polygon>
                        <polygon id="Fill-730" points="76.9399 67.7463 72.3559 70.3933 76.9399 73.0403 81.5249 70.3933"></polygon>
                        <polygon id="Fill-732" points="67.9858 72.9163 63.4008 75.5633 67.9858 78.2103 72.5708 75.5633"></polygon>
                        <polygon id="Fill-734" points="85.895 62.5764 81.31 65.2234 85.895 67.8704 90.48 65.2234"></polygon>
                        <polygon id="Fill-736" points="85.895 52.2366 81.31 54.8836 85.895 57.5306 90.48 54.8836"></polygon>
                        <polygon id="Fill-738" points="50.0766 82.2029 45.4916 84.8499 50.0766 87.4969 54.6606 84.8499"></polygon>
                        <polygon id="Fill-740" points="23.2123 57.4065 18.6273 60.0535 23.2123 62.7005 27.7963 60.0535"></polygon>
                        <polygon id="Fill-742" points="5.2153 57.4065 0.6303 60.0535 5.2153 62.7005 9.7993 60.0535"></polygon>
                        <polygon id="Fill-744" points="23.2123 47.0662 18.6273 49.7132 23.2123 52.3602 27.7963 49.7132"></polygon>
                        <polygon id="Fill-746" points="14.2573 62.5764 9.6723 65.2234 14.2573 67.8704 18.8423 65.2234"></polygon>
                        <polygon id="Fill-748" points="14.2573 52.2366 9.6723 54.8836 14.2573 57.5306 18.8423 54.8836"></polygon>
                        <polygon id="Fill-750" points="41.1215 47.0662 36.5365 49.7132 41.1215 52.3602 45.7065 49.7132"></polygon>
                        <polygon id="Fill-752" points="41.1215 36.7947 36.5365 39.4417 41.1215 42.0887 45.7065 39.4417"></polygon>
                        <polygon id="Fill-754" points="32.1664 52.2366 27.5814 54.8836 32.1664 57.5306 36.7514 54.8836"></polygon>
                        <polygon id="Fill-756" points="32.1664 41.8962 27.5814 44.5432 32.1664 47.1902 36.7514 44.5432"></polygon>
                        <polygon id="Fill-758" points="41.1215 57.4065 36.5365 60.0535 41.1215 62.7005 45.7065 60.0535"></polygon>
                        <polygon id="Fill-760" points="32.1664 62.5764 27.5814 65.2234 32.1664 67.8704 36.7514 65.2234"></polygon>
                        <polygon id="Fill-762" points="23.2123 67.7463 18.6273 70.3933 23.2123 73.0403 27.7963 70.3933"></polygon>
                        <polygon id="Fill-764" points="32.1664 72.9163 27.5814 75.5633 32.1664 78.2103 36.7514 75.5633"></polygon>
                        <polygon id="Fill-766" points="41.1215 67.7463 36.5365 70.3933 41.1215 73.0403 45.7065 70.3933"></polygon>
                        <polygon id="Fill-768" points="41.1215 78.0862 36.5365 80.7332 41.1215 83.3802 45.7065 80.7332"></polygon>
                        <polygon id="Fill-770" points="104.0278 10.7395 99.4428 13.3865 104.0278 16.0335 108.6128 13.3865"></polygon>
                        <polygon id="Fill-772" points="104.0278 0.468 99.4428 3.115 104.0278 5.762 108.6128 3.115"></polygon>
                        <polygon id="Fill-774" points="112.9828 15.9094 108.3978 18.5564 112.9828 21.2034 117.5678 18.5564"></polygon>
                        <polygon id="Fill-776" points="112.9828 5.6379 108.3978 8.2849 112.9828 10.9319 117.5678 8.2849"></polygon>
                        <polygon id="Fill-778" points="104.0278 21.0793 99.4428 23.7263 104.0278 26.3733 108.6128 23.7263"></polygon>
                        <polygon id="Fill-780" points="112.9828 26.2493 108.3978 28.8963 112.9828 31.5433 117.5678 28.8963"></polygon>
                        <polygon id="Fill-782" points="104.0278 31.4197 99.4428 34.0667 104.0278 36.7137 108.6128 34.0667"></polygon>
                        <polygon id="Fill-784" points="112.9828 36.5896 108.3978 39.2366 112.9828 41.8836 117.5678 39.2366"></polygon>
                        <polygon id="Fill-786" points="104.0278 41.7595 99.4428 44.4065 104.0278 47.0535 108.6128 44.4065"></polygon>
                        <polygon id="Fill-788" points="112.9828 46.9294 108.3978 49.5764 112.9828 52.2234 117.5678 49.5764"></polygon>
                        <polygon id="Fill-790" points="121.9379 21.0793 117.3529 23.7263 121.9379 26.3733 126.5219 23.7263"></polygon>
                        <polygon id="Fill-792" points="121.9379 10.7395 117.3529 13.3865 121.9379 16.0335 126.5219 13.3865"></polygon>
                        <polygon id="Fill-794" points="130.892 26.2493 126.307 28.8963 130.892 31.5433 135.477 28.8963"></polygon>
                        <polygon id="Fill-796" points="148.8012 26.2493 144.2172 28.8963 148.8012 31.5433 153.3862 28.8963"></polygon>
                        <polygon id="Fill-798" points="130.892 15.9094 126.307 18.5564 130.892 21.2034 135.477 18.5564"></polygon>
                        <polygon id="Fill-800" points="121.9379 31.4197 117.3529 34.0667 121.9379 36.7137 126.5219 34.0667"></polygon>
                        <polygon id="Fill-802" points="130.892 36.5896 126.307 39.2366 130.892 41.8836 135.477 39.2366"></polygon>
                        <polygon id="Fill-804" points="121.9379 41.7595 117.3529 44.4065 121.9379 47.0535 126.5219 44.4065"></polygon>
                        <polygon id="Fill-806" points="139.8471 31.4197 135.2621 34.0667 139.8471 36.7137 144.4321 34.0667"></polygon>
                        <polygon id="Fill-808" points="139.8471 21.0793 135.2621 23.7263 139.8471 26.3733 144.4321 23.7263"></polygon>
                        <polygon id="Fill-810" points="104.0278 52.0994 99.4428 54.7464 104.0278 57.3934 108.6128 54.7464"></polygon>
                        <polygon id="Fill-812" points="77.1635 26.2493 72.5795 28.8963 77.1635 31.5433 81.7485 28.8963"></polygon>
                        <polygon id="Fill-814" points="59.1664 26.2493 54.5814 28.8963 59.1664 31.5433 63.7514 28.8963"></polygon>
                        <polygon id="Fill-816" points="77.1635 15.9094 72.5795 18.5564 77.1635 21.2034 81.7485 18.5564"></polygon>
                        <polygon id="Fill-818" points="68.2094 31.4197 63.6244 34.0667 68.2094 36.7137 72.7944 34.0667"></polygon>
                        <polygon id="Fill-820" points="68.2094 21.0793 63.6244 23.7263 68.2094 26.3733 72.7944 23.7263"></polygon>
                        <polygon id="Fill-822" points="95.0737 15.9094 90.4887 18.5564 95.0737 21.2034 99.6587 18.5564"></polygon>
                        <polygon id="Fill-824" points="95.0737 5.6379 90.4887 8.2849 95.0737 10.9319 99.6587 8.2849"></polygon>
                        <polygon id="Fill-826" points="86.1186 21.0793 81.5336 23.7263 86.1186 26.3733 90.7036 23.7263"></polygon>
                        <polygon id="Fill-828" points="86.1186 10.7395 81.5336 13.3865 86.1186 16.0335 90.7036 13.3865"></polygon>
                        <polygon id="Fill-830" points="95.0737 26.2493 90.4887 28.8963 95.0737 31.5433 99.6587 28.8963"></polygon>
                        <polygon id="Fill-832" points="86.1186 31.4197 81.5336 34.0667 86.1186 36.7137 90.7036 34.0667"></polygon>
                        <polygon id="Fill-834" points="77.1635 36.5896 72.5795 39.2366 77.1635 41.8836 81.7485 39.2366"></polygon>
                        <polygon id="Fill-836" points="86.1186 41.7595 81.5336 44.4065 86.1186 47.0535 90.7036 44.4065"></polygon>
                        <polygon id="Fill-838" points="95.0737 36.5896 90.4887 39.2366 95.0737 41.8836 99.6587 39.2366"></polygon>
                        <polygon id="Fill-840" points="95.0737 46.9294 90.4887 49.5764 95.0737 52.2234 99.6587 49.5764"></polygon>
                    </g>
                    <polygon id="Fill-843" fill="#FFFFFF" points="307.0278 72.4868 302.4428 75.1338 307.0278 77.7808 311.6128 75.1338"></polygon>
                    <polygon id="Fill-844" fill="#FFFFFF" points="307.0278 62.2153 302.4428 64.8623 307.0278 67.5093 311.6128 64.8623"></polygon>
                    <polygon id="Fill-845" fill="#FFFFFF" points="315.9828 77.6567 311.3978 80.3037 315.9828 82.9507 320.5678 80.3037"></polygon>
                    <polygon id="Fill-846" fill="#FFFFFF" points="315.9828 67.3852 311.3978 70.0322 315.9828 72.6792 320.5678 70.0322"></polygon>
                    <polygon id="Fill-847" fill="#FFFFFF" points="307.0278 82.8266 302.4428 85.4736 307.0278 88.1206 311.6128 85.4736"></polygon>
                    <polygon id="Fill-848" fill="#FFFFFF" points="315.9828 87.9966 311.3978 90.6436 315.9828 93.2906 320.5678 90.6436"></polygon>
                    <polygon id="Fill-849" fill="#FFFFFF" points="307.0278 93.167 302.4428 95.814 307.0278 98.461 311.6128 95.814"></polygon>
                    <polygon id="Fill-850" fill="#FFFFFF" points="315.9828 98.3369 311.3978 100.9839 315.9828 103.6309 320.5678 100.9839"></polygon>
                    <polygon id="Fill-851" fill="#FFFFFF" points="307.0278 103.5068 302.4428 106.1538 307.0278 108.8008 311.6128 106.1538"></polygon>
                    <polygon id="Fill-852" fill="#FFFFFF" points="315.9828 108.6767 311.3978 111.3237 315.9828 113.9707 320.5678 111.3237"></polygon>
                    <polygon id="Fill-853" fill="#FFFFFF" points="324.9379 82.8266 320.3529 85.4736 324.9379 88.1206 329.5219 85.4736"></polygon>
                    <polygon id="Fill-854" fill="#FFFFFF" points="324.9379 72.4868 320.3529 75.1338 324.9379 77.7808 329.5219 75.1338"></polygon>
                    <polygon id="Fill-855" fill="#FFFFFF" points="333.892 87.9966 329.307 90.6436 333.892 93.2906 338.477 90.6436"></polygon>
                    <polygon id="Fill-856" fill="#FFFFFF" points="351.8012 87.9966 347.2172 90.6436 351.8012 93.2906 356.3862 90.6436"></polygon>
                    <polygon id="Fill-857" fill="#FFFFFF" points="333.892 77.6567 329.307 80.3037 333.892 82.9507 338.477 80.3037"></polygon>
                    <polygon id="Fill-858" fill="#FFFFFF" points="324.9379 93.167 320.3529 95.814 324.9379 98.461 329.5219 95.814"></polygon>
                    <polygon id="Fill-859" fill="#FFFFFF" points="333.892 98.3369 329.307 100.9839 333.892 103.6309 338.477 100.9839"></polygon>
                    <polygon id="Fill-860" fill="#FFFFFF" points="324.9379 103.5068 320.3529 106.1538 324.9379 108.8008 329.5219 106.1538"></polygon>
                    <polygon id="Fill-861" fill="#FFFFFF" points="342.8471 93.167 338.2621 95.814 342.8471 98.461 347.4321 95.814"></polygon>
                    <polygon id="Fill-862" fill="#FFFFFF" points="342.8471 82.8266 338.2621 85.4736 342.8471 88.1206 347.4321 85.4736"></polygon>
                    <polygon id="Fill-863" fill="#FFFFFF" points="307.0278 113.8467 302.4428 116.4937 307.0278 119.1407 311.6128 116.4937"></polygon>
                    <polygon id="Fill-864" fill="#FFFFFF" points="280.1635 87.9966 275.5795 90.6436 280.1635 93.2906 284.7485 90.6436"></polygon>
                    <polygon id="Fill-865" fill="#FFFFFF" points="262.1664 87.9966 257.5814 90.6436 262.1664 93.2906 266.7514 90.6436"></polygon>
                    <polygon id="Fill-866" fill="#FFFFFF" points="280.1635 77.6567 275.5795 80.3037 280.1635 82.9507 284.7485 80.3037"></polygon>
                    <polygon id="Fill-867" fill="#FFFFFF" points="271.2094 93.167 266.6244 95.814 271.2094 98.461 275.7944 95.814"></polygon>
                    <polygon id="Fill-868" fill="#FFFFFF" points="271.2094 82.8266 266.6244 85.4736 271.2094 88.1206 275.7944 85.4736"></polygon>
                    <polygon id="Fill-869" fill="#FFFFFF" points="298.0737 77.6567 293.4887 80.3037 298.0737 82.9507 302.6587 80.3037"></polygon>
                    <polygon id="Fill-870" fill="#FFFFFF" points="298.0737 67.3852 293.4887 70.0322 298.0737 72.6792 302.6587 70.0322"></polygon>
                    <polygon id="Fill-871" fill="#FFFFFF" points="289.1186 82.8266 284.5336 85.4736 289.1186 88.1206 293.7036 85.4736"></polygon>
                    <polygon id="Fill-872" fill="#FFFFFF" points="289.1186 72.4868 284.5336 75.1338 289.1186 77.7808 293.7036 75.1338"></polygon>
                    <polygon id="Fill-873" fill="#FFFFFF" points="298.0737 87.9966 293.4887 90.6436 298.0737 93.2906 302.6587 90.6436"></polygon>
                    <polygon id="Fill-874" fill="#FFFFFF" points="289.1186 93.167 284.5336 95.814 289.1186 98.461 293.7036 95.814"></polygon>
                    <polygon id="Fill-875" fill="#FFFFFF" points="280.1635 98.3369 275.5795 100.9839 280.1635 103.6309 284.7485 100.9839"></polygon>
                    <polygon id="Fill-876" fill="#FFFFFF" points="289.1186 103.5068 284.5336 106.1538 289.1186 108.8008 293.7036 106.1538"></polygon>
                    <polygon id="Fill-877" fill="#FFFFFF" points="298.0737 98.3369 293.4887 100.9839 298.0737 103.6309 302.6587 100.9839"></polygon>
                    <polygon id="Fill-878" fill="#FFFFFF" points="298.0737 108.6767 293.4887 111.3237 298.0737 113.9707 302.6587 111.3237"></polygon>
                    <polygon id="Fill-879" fill="#FFFFFF" points="360.5766 41.5693 355.9916 44.2163 360.5766 46.8633 365.1616 44.2163"></polygon>
                    <polygon id="Fill-880" fill="#FFFFFF" points="360.5766 31.2978 355.9916 33.9448 360.5766 36.5918 365.1616 33.9448"></polygon>
                    <polygon id="Fill-881" fill="#FFFFFF" points="369.5317 46.7392 364.9467 49.3862 369.5317 52.0332 374.1157 49.3862"></polygon>
                    <polygon id="Fill-882" fill="#FFFFFF" points="369.5317 36.4677 364.9467 39.1147 369.5317 41.7617 374.1157 39.1147"></polygon>
                    <polygon id="Fill-883" fill="#FFFFFF" points="360.5766 51.9092 355.9916 54.5562 360.5766 57.2032 365.1616 54.5562"></polygon>
                    <polygon id="Fill-884" fill="#FFFFFF" points="369.5317 57.0796 364.9467 59.7266 369.5317 62.3736 374.1157 59.7266"></polygon>
                    <polygon id="Fill-885" fill="#FFFFFF" points="360.5766 62.2495 355.9916 64.8965 360.5766 67.5435 365.1616 64.8965"></polygon>
                    <polygon id="Fill-886" fill="#FFFFFF" points="369.5317 67.4194 364.9467 70.0664 369.5317 72.7134 374.1157 70.0664"></polygon>
                    <polygon id="Fill-887" fill="#FFFFFF" points="360.5766 72.5893 355.9916 75.2363 360.5766 77.8833 365.1616 75.2363"></polygon>
                    <polygon id="Fill-888" fill="#FFFFFF" points="369.5317 77.7592 364.9467 80.4062 369.5317 83.0532 374.1157 80.4062"></polygon>
                    <polygon id="Fill-889" fill="#FFFFFF" points="378.4858 51.9092 373.9008 54.5562 378.4858 57.2032 383.0708 54.5562"></polygon>
                    <polygon id="Fill-890" fill="#FFFFFF" points="378.4858 41.5693 373.9008 44.2163 378.4858 46.8633 383.0708 44.2163"></polygon>
                    <polygon id="Fill-891" fill="#FFFFFF" points="387.4409 57.0796 382.8559 59.7266 387.4409 62.3736 392.0259 59.7266"></polygon>
                    <polygon id="Fill-892" fill="#000000" points="405.35 57.0796 400.765 59.7266 405.35 62.3736 409.935 59.7266"></polygon>
                    <polygon id="Fill-893" fill="#FFFFFF" points="387.4409 46.7392 382.8559 49.3862 387.4409 52.0332 392.0259 49.3862"></polygon>
                    <polygon id="Fill-894" fill="#FFFFFF" points="378.4858 62.2495 373.9008 64.8965 378.4858 67.5435 383.0708 64.8965"></polygon>
                    <polygon id="Fill-895" fill="#FFFFFF" points="387.4409 67.4194 382.8559 70.0664 387.4409 72.7134 392.0259 70.0664"></polygon>
                    <polygon id="Fill-896" fill="#FFFFFF" points="378.4858 72.5893 373.9008 75.2363 378.4858 77.8833 383.0708 75.2363"></polygon>
                    <polygon id="Fill-897" fill="#FFFFFF" points="396.395 62.2495 391.811 64.8965 396.395 67.5435 400.98 64.8965"></polygon>
                    <polygon id="Fill-898" fill="#FFFFFF" points="396.395 51.9092 391.811 54.5562 396.395 57.2032 400.98 54.5562"></polygon>
                    <polygon id="Fill-899" fill="#FFFFFF" points="360.5766 82.9292 355.9916 85.5762 360.5766 88.2232 365.1616 85.5762"></polygon>
                    <polygon id="Fill-900" fill="#FFFFFF" points="333.7123 57.0796 329.1273 59.7266 333.7123 62.3736 338.2973 59.7266"></polygon>
                    <polygon id="Fill-901" fill="#FFFFFF" points="315.7153 57.0796 311.1303 59.7266 315.7153 62.3736 320.3003 59.7266"></polygon>
                    <polygon id="Fill-902" fill="#FFFFFF" points="333.7123 46.7392 329.1273 49.3862 333.7123 52.0332 338.2973 49.3862"></polygon>
                    <polygon id="Fill-903" fill="#FFFFFF" points="324.7573 62.2495 320.1733 64.8965 324.7573 67.5435 329.3423 64.8965"></polygon>
                    <polygon id="Fill-904" fill="#FFFFFF" points="324.7573 51.9092 320.1733 54.5562 324.7573 57.2032 329.3423 54.5562"></polygon>
                    <polygon id="Fill-905" fill="#FFFFFF" points="351.6215 46.7392 347.0375 49.3862 351.6215 52.0332 356.2065 49.3862"></polygon>
                    <polygon id="Fill-906" fill="#FFFFFF" points="351.6215 36.4677 347.0375 39.1147 351.6215 41.7617 356.2065 39.1147"></polygon>
                    <polygon id="Fill-907" fill="#FFFFFF" points="342.6674 51.9092 338.0824 54.5562 342.6674 57.2032 347.2524 54.5562"></polygon>
                    <polygon id="Fill-908" fill="#FFFFFF" points="342.6674 41.5693 338.0824 44.2163 342.6674 46.8633 347.2524 44.2163"></polygon>
                    <polygon id="Fill-909" fill="#FFFFFF" points="351.6215 57.0796 347.0375 59.7266 351.6215 62.3736 356.2065 59.7266"></polygon>
                    <polygon id="Fill-910" fill="#FFFFFF" points="342.6674 62.2495 338.0824 64.8965 342.6674 67.5435 347.2524 64.8965"></polygon>
                    <polygon id="Fill-911" fill="#FFFFFF" points="333.7123 67.4194 329.1273 70.0664 333.7123 72.7134 338.2973 70.0664"></polygon>
                    <polygon id="Fill-912" fill="#FFFFFF" points="342.6674 72.5893 338.0824 75.2363 342.6674 77.8833 347.2524 75.2363"></polygon>
                    <polygon id="Fill-913" fill="#FFFFFF" points="351.6215 67.4194 347.0375 70.0664 351.6215 72.7134 356.2065 70.0664"></polygon>
                    <polygon id="Fill-914" fill="#FFFFFF" points="351.6215 77.7592 347.0375 80.4062 351.6215 83.0532 356.2065 80.4062"></polygon>
                    <polygon id="Fill-915" fill="#FFFFFF" points="253.0766 41.5693 248.4916 44.2163 253.0766 46.8633 257.6606 44.2163"></polygon>
                    <polygon id="Fill-916" fill="#FFFFFF" points="253.0766 31.2978 248.4916 33.9448 253.0766 36.5918 257.6606 33.9448"></polygon>
                    <polygon id="Fill-917" fill="#FFFFFF" points="262.0307 46.7392 257.4457 49.3862 262.0307 52.0332 266.6157 49.3862"></polygon>
                    <polygon id="Fill-918" fill="#FFFFFF" points="262.0307 36.4677 257.4457 39.1147 262.0307 41.7617 266.6157 39.1147"></polygon>
                    <polygon id="Fill-919" fill="#FFFFFF" points="253.0766 51.9092 248.4916 54.5562 253.0766 57.2032 257.6606 54.5562"></polygon>
                    <polygon id="Fill-920" fill="#FFFFFF" points="262.0307 57.0796 257.4457 59.7266 262.0307 62.3736 266.6157 59.7266"></polygon>
                    <polygon id="Fill-921" fill="#FFFFFF" points="253.0766 62.2495 248.4916 64.8965 253.0766 67.5435 257.6606 64.8965"></polygon>
                    <polygon id="Fill-922" fill="#FFFFFF" points="262.0307 67.4194 257.4457 70.0664 262.0307 72.7134 266.6157 70.0664"></polygon>
                    <polygon id="Fill-923" fill="#FFFFFF" points="253.0766 72.5893 248.4916 75.2363 253.0766 77.8833 257.6606 75.2363"></polygon>
                    <polygon id="Fill-924" fill="#FFFFFF" points="262.0307 77.7592 257.4457 80.4062 262.0307 83.0532 266.6157 80.4062"></polygon>
                    <polygon id="Fill-925" fill="#FFFFFF" points="270.9858 51.9092 266.4008 54.5562 270.9858 57.2032 275.5708 54.5562"></polygon>
                    <polygon id="Fill-926" fill="#FFFFFF" points="270.9858 41.5693 266.4008 44.2163 270.9858 46.8633 275.5708 44.2163"></polygon>
                    <polygon id="Fill-927" fill="#FFFFFF" points="279.9399 57.0796 275.3559 59.7266 279.9399 62.3736 284.5249 59.7266"></polygon>
                    <polygon id="Fill-928" fill="#FFFFFF" points="297.85 57.0796 293.265 59.7266 297.85 62.3736 302.435 59.7266"></polygon>
                    <polygon id="Fill-929" fill="#FFFFFF" points="279.9399 46.7392 275.3559 49.3862 279.9399 52.0332 284.5249 49.3862"></polygon>
                    <polygon id="Fill-930" fill="#FFFFFF" points="270.9858 62.2495 266.4008 64.8965 270.9858 67.5435 275.5708 64.8965"></polygon>
                    <polygon id="Fill-931" fill="#FFFFFF" points="279.9399 67.4194 275.3559 70.0664 279.9399 72.7134 284.5249 70.0664"></polygon>
                    <polygon id="Fill-932" fill="#FFFFFF" points="270.9858 72.5893 266.4008 75.2363 270.9858 77.8833 275.5708 75.2363"></polygon>
                    <polygon id="Fill-933" fill="#FFFFFF" points="288.895 62.2495 284.31 64.8965 288.895 67.5435 293.48 64.8965"></polygon>
                    <polygon id="Fill-934" fill="#FFFFFF" points="288.895 51.9092 284.31 54.5562 288.895 57.2032 293.48 54.5562"></polygon>
                    <polygon id="Fill-935" fill="#FFFFFF" points="253.0766 81.8759 248.4916 84.5229 253.0766 87.1699 257.6606 84.5229"></polygon>
                    <polygon id="Fill-936" fill="#FFFFFF" points="226.2123 57.0796 221.6273 59.7266 226.2123 62.3736 230.7963 59.7266"></polygon>
                    <polygon id="Fill-937" fill="#FFFFFF" points="208.2153 57.0796 203.6303 59.7266 208.2153 62.3736 212.7993 59.7266"></polygon>
                    <polygon id="Fill-938" fill="#FFFFFF" points="226.2123 46.7392 221.6273 49.3862 226.2123 52.0332 230.7963 49.3862"></polygon>
                    <polygon id="Fill-939" fill="#FFFFFF" points="217.2573 62.2495 212.6723 64.8965 217.2573 67.5435 221.8423 64.8965"></polygon>
                    <polygon id="Fill-940" fill="#FFFFFF" points="217.2573 51.9092 212.6723 54.5562 217.2573 57.2032 221.8423 54.5562"></polygon>
                    <polygon id="Fill-941" fill="#FFFFFF" points="244.1215 46.7392 239.5365 49.3862 244.1215 52.0332 248.7065 49.3862"></polygon>
                    <polygon id="Fill-942" fill="#FFFFFF" points="244.1215 36.4677 239.5365 39.1147 244.1215 41.7617 248.7065 39.1147"></polygon>
                    <polygon id="Fill-943" fill="#FFFFFF" points="235.1664 51.9092 230.5814 54.5562 235.1664 57.2032 239.7514 54.5562"></polygon>
                    <polygon id="Fill-944" fill="#FFFFFF" points="235.1664 41.5693 230.5814 44.2163 235.1664 46.8633 239.7514 44.2163"></polygon>
                    <polygon id="Fill-945" fill="#FFFFFF" points="244.1215 57.0796 239.5365 59.7266 244.1215 62.3736 248.7065 59.7266"></polygon>
                    <polygon id="Fill-946" fill="#FFFFFF" points="235.1664 62.2495 230.5814 64.8965 235.1664 67.5435 239.7514 64.8965"></polygon>
                    <polygon id="Fill-947" fill="#FFFFFF" points="226.2123 67.4194 221.6273 70.0664 226.2123 72.7134 230.7963 70.0664"></polygon>
                    <polygon id="Fill-948" fill="#FFFFFF" points="235.1664 72.5893 230.5814 75.2363 235.1664 77.8833 239.7514 75.2363"></polygon>
                    <polygon id="Fill-949" fill="#FFFFFF" points="244.1215 67.4194 239.5365 70.0664 244.1215 72.7134 248.7065 70.0664"></polygon>
                    <polygon id="Fill-950" fill="#FFFFFF" points="244.1215 77.7592 239.5365 80.4062 244.1215 83.0532 248.7065 80.4062"></polygon>
                    <polygon id="Fill-951" fill="#FFFFFF" points="307.0278 10.4126 302.4428 13.0596 307.0278 15.7066 311.6128 13.0596"></polygon>
                    <polygon id="Fill-952" fill="#FFFFFF" points="307.0278 0.1411 302.4428 2.7881 307.0278 5.4351 311.6128 2.7881"></polygon>
                    <polygon id="Fill-953" fill="#FFFFFF" points="315.9828 15.5825 311.3978 18.2295 315.9828 20.8765 320.5678 18.2295"></polygon>
                    <polygon id="Fill-954" fill="#FFFFFF" points="315.9828 5.311 311.3978 7.958 315.9828 10.605 320.5678 7.958"></polygon>
                    <polygon id="Fill-955" fill="#FFFFFF" points="307.0278 20.7524 302.4428 23.3994 307.0278 26.0464 311.6128 23.3994"></polygon>
                    <polygon id="Fill-956" fill="#FFFFFF" points="315.9828 25.9223 311.3978 28.5693 315.9828 31.2163 320.5678 28.5693"></polygon>
                    <polygon id="Fill-957" fill="#FFFFFF" points="307.0278 31.0923 302.4428 33.7393 307.0278 36.3863 311.6128 33.7393"></polygon>
                    <polygon id="Fill-958" fill="#FFFFFF" points="315.9828 36.2627 311.3978 38.9097 315.9828 41.5567 320.5678 38.9097"></polygon>
                    <polygon id="Fill-959" fill="#FFFFFF" points="307.0278 41.4326 302.4428 44.0796 307.0278 46.7266 311.6128 44.0796"></polygon>
                    <polygon id="Fill-960" fill="#FFFFFF" points="315.9828 46.6025 311.3978 49.2495 315.9828 51.8965 320.5678 49.2495"></polygon>
                    <polygon id="Fill-961" fill="#FFFFFF" points="324.9379 20.7524 320.3529 23.3994 324.9379 26.0464 329.5219 23.3994"></polygon>
                    <polygon id="Fill-962" fill="#FFFFFF" points="324.9379 10.4126 320.3529 13.0596 324.9379 15.7066 329.5219 13.0596"></polygon>
                    <polygon id="Fill-963" fill="#FFFFFF" points="333.892 25.9223 329.307 28.5693 333.892 31.2163 338.477 28.5693"></polygon>
                    <polygon id="Fill-964" fill="#FFFFFF" points="351.8012 25.9223 347.2172 28.5693 351.8012 31.2163 356.3862 28.5693"></polygon>
                    <polygon id="Fill-965" fill="#FFFFFF" points="333.892 15.5825 329.307 18.2295 333.892 20.8765 338.477 18.2295"></polygon>
                    <polygon id="Fill-966" fill="#FFFFFF" points="324.9379 31.0923 320.3529 33.7393 324.9379 36.3863 329.5219 33.7393"></polygon>
                    <polygon id="Fill-967" fill="#FFFFFF" points="333.892 36.2627 329.307 38.9097 333.892 41.5567 338.477 38.9097"></polygon>
                    <polygon id="Fill-968" fill="#FFFFFF" points="324.9379 41.4326 320.3529 44.0796 324.9379 46.7266 329.5219 44.0796"></polygon>
                    <polygon id="Fill-969" fill="#FFFFFF" points="342.8471 31.0923 338.2621 33.7393 342.8471 36.3863 347.4321 33.7393"></polygon>
                    <polygon id="Fill-970" fill="#FFFFFF" points="342.8471 20.7524 338.2621 23.3994 342.8471 26.0464 347.4321 23.3994"></polygon>
                    <polygon id="Fill-971" fill="#FFFFFF" points="307.0278 51.7724 302.4428 54.4194 307.0278 57.0664 311.6128 54.4194"></polygon>
                    <polygon id="Fill-972" fill="#FFFFFF" points="280.1635 25.9223 275.5795 28.5693 280.1635 31.2163 284.7485 28.5693"></polygon>
                    <polygon id="Fill-973" fill="#FFFFFF" points="262.1664 25.9223 257.5814 28.5693 262.1664 31.2163 266.7514 28.5693"></polygon>
                    <polygon id="Fill-974" fill="#FFFFFF" points="280.1635 15.5825 275.5795 18.2295 280.1635 20.8765 284.7485 18.2295"></polygon>
                    <polygon id="Fill-975" fill="#FFFFFF" points="271.2094 31.0923 266.6244 33.7393 271.2094 36.3863 275.7944 33.7393"></polygon>
                    <polygon id="Fill-976" fill="#FFFFFF" points="271.2094 20.7524 266.6244 23.3994 271.2094 26.0464 275.7944 23.3994"></polygon>
                    <polygon id="Fill-977" fill="#FFFFFF" points="298.0737 15.5825 293.4887 18.2295 298.0737 20.8765 302.6587 18.2295"></polygon>
                    <polygon id="Fill-978" fill="#FFFFFF" points="298.0737 5.311 293.4887 7.958 298.0737 10.605 302.6587 7.958"></polygon>
                    <polygon id="Fill-979" fill="#FFFFFF" points="289.1186 20.7524 284.5336 23.3994 289.1186 26.0464 293.7036 23.3994"></polygon>
                    <polygon id="Fill-980" fill="#FFFFFF" points="289.1186 10.4126 284.5336 13.0596 289.1186 15.7066 293.7036 13.0596"></polygon>
                    <polygon id="Fill-981" fill="#FFFFFF" points="298.0737 25.9223 293.4887 28.5693 298.0737 31.2163 302.6587 28.5693"></polygon>
                    <polygon id="Fill-982" fill="#FFFFFF" points="289.1186 31.0923 284.5336 33.7393 289.1186 36.3863 293.7036 33.7393"></polygon>
                    <path d="M409.967,84.941 L528.461,16.528 L409.967,84.941 Z" id="Fill-1019"></path>
                    <polygon id="Fill-983" fill="#FFFFFF" points="280.1635 36.2627 275.5795 38.9097 280.1635 41.5567 284.7485 38.9097"></polygon>
                    <polygon id="Fill-984" fill="#FFFFFF" points="289.1186 41.4326 284.5336 44.0796 289.1186 46.7266 293.7036 44.0796"></polygon>
                    <polygon id="Fill-985" fill="#FFFFFF" points="298.0737 36.2627 293.4887 38.9097 298.0737 41.5567 302.6587 38.9097"></polygon>
                    <polygon id="Fill-986" fill="#FFFFFF" points="298.0737 46.6025 293.4887 49.2495 298.0737 51.8965 302.6587 49.2495"></polygon>
                    <g id="Group-1002" transform="translate(403.000000, 53.780000)">
                        <path d="M10,31.5 C10,33.433 8.434,35 6.5,35 C4.567,35 3,33.433 3,31.5 C3,29.567 4.567,28 6.5,28 C8.434,28 10,29.567 10,31.5" id="Fill-998" fill="#CA2171"></path>
                        <path d="M10,6.5 C10,8.433 8.434,10 6.5,10 C4.567,10 3,8.433 3,6.5 C3,4.567 4.567,3 6.5,3 C8.434,3 10,4.567 10,6.5" id="Fill-998" fill="#CA2171"></path>
                        <path d="M6.5,25 C2.915,25 0,27.916 0,31.5 C0,35.084 2.915,38 6.5,38 C10.084,38 13,35.084 13,31.5 C13,27.916 10.084,25 6.5,25 M6.5,28 C8.433,28 10,29.567 10,31.5 C10,33.433 8.433,35 6.5,35 C4.566,35 3,33.433 3,31.5 C3,29.567 4.566,28 6.5,28" id="Fill-1000" fill="#000000"></path>
                        <path d="M6.5,0 C2.915,0 0,2.916 0,6.5 C0,10.084 2.915,13 6.5,13 C10.084,13 13,10.084 13,6.5 C13,2.916 10.084,0 6.5,0 M6.5,3 C8.433,3 10,4.567 10,6.5 C10,8.433 8.433,10 6.5,10 C4.566,10 3,8.433 3,6.5 C3,4.567 4.566,3 6.5,3" id="Fill-1000" fill="#000000"></path>
                    </g>
                    <g id="Group-1047" transform="translate(402.000000, 98.780000)">
                        <path d="M10.5981,6.8767 C10.5981,8.8097 9.0321,10.3767 7.0981,10.3767 C5.1651,10.3767 3.5981,8.8097 3.5981,6.8767 C3.5981,4.9437 5.1651,3.3767 7.0981,3.3767 C9.0321,3.3767 10.5981,4.9437 10.5981,6.8767" id="Fill-1039" fill="#CA2171"></path>
                        <path d="M7.0991,0.3767 C3.5141,0.3767 0.5991,3.2927 0.5991,6.8767 C0.5991,10.4607 3.5141,13.3767 7.0991,13.3767 C10.6831,13.3767 13.5991,10.4607 13.5991,6.8767 C13.5991,3.2927 10.6831,0.3767 7.0991,0.3767 M7.0991,3.3767 C9.0321,3.3767 10.5991,4.9437 10.5991,6.8767 C10.5991,8.8097 9.0321,10.3767 7.0991,10.3767 C5.1651,10.3767 3.5991,8.8097 3.5991,6.8767 C3.5991,4.9437 5.1651,3.3767 7.0991,3.3767" id="Fill-1041" fill="#000000"></path>
                        <path d="M10.5981,27.0012 C10.5981,28.9342 9.0321,30.5012 7.0981,30.5012 C5.1651,30.5012 3.5981,28.9342 3.5981,27.0012 C3.5981,25.0682 5.1651,23.5012 7.0981,23.5012 C9.0321,23.5012 10.5981,25.0682 10.5981,27.0012" id="Fill-1043" fill="#CA2171"></path>
                        <path d="M7.0991,20.5012 C3.5141,20.5012 0.5991,23.4172 0.5991,27.0012 C0.5991,30.5852 3.5141,33.5012 7.0991,33.5012 C10.6831,33.5012 13.5991,30.5852 13.5991,27.0012 C13.5991,23.4172 10.6831,20.5012 7.0991,20.5012 M7.0991,23.5012 C9.0321,23.5012 10.5991,25.0682 10.5991,27.0012 C10.5991,28.9342 9.0321,30.5012 7.0991,30.5012 C5.1651,30.5012 3.5991,28.9342 3.5991,27.0012 C3.5991,25.0682 5.1651,23.5012 7.0991,23.5012" id="Fill-1045" fill="#000000"></path>
                    </g>
                    <path d="M635.480469,149.333984 L553,198.667969" id="Path-2" stroke="url(#linearGradient-34)" stroke-width="3" opacity="0.5"></path>
                    <path d="M552,289.822969 L599.978152,318.135988" id="Path-3" stroke="url(#linearGradient-35)" stroke-width="3" opacity="0.400000006"></path>
                </g>
            </g>
        </g>
    </g>
</svg>