<?xml version="1.0" encoding="utf-8"?>
<svg version="1.1" id="Layer_1" xmlns="http://www.w3.org/2000/svg" xmlns:xlink="http://www.w3.org/1999/xlink" x="0px" y="0px"
	 viewBox="0 0 83.7 96.7" style="enable-background:new 0 0 83.7 96.7;" xml:space="preserve">
<style type="text/css">
	.st0{opacity:0.8;}
	.st1{fill:#FFF200;}
	.st2{fill:none;}
	.st3{fill:url(#SVGID_1_);}
	.st4{fill:url(#SVGID_2_);}
	.st5{fill:url(#SVGID_3_);}
	.st6{fill:url(#SVGID_4_);}
	.st7{fill:url(#SVGID_5_);}
	.st8{fill:url(#SVGID_6_);}
</style>
<g>
	<g class="st0">
		<path class="st1" d="M29.2,85.7L29.2,85.7L19.1,80c0,0,0,0,0-0.1l0,0l0,0c1.6,0.7,3.2,1.1,4.9,1.3c1.4,1.8,3.1,3.2,5.1,4.3
			L29.2,85.7C29.2,85.6,29.3,85.6,29.2,85.7L29.2,85.7z"/>
		<path class="st2" d="M19.1,80c1.6,0.7,3.3,1.1,5,1.3l0,0c1.4,1.7,3.1,3.2,5,4.3L19.1,80 M29.1,85.6L29.1,85.6
			C29.2,85.6,29.1,85.6,29.1,85.6 M19.1,79.9C19.1,79.9,19,79.9,19.1,79.9C19,80,19,80,19.1,79.9l10,5.7l0,0h0.1l0,0
			c0,0,0.1,0,0.1-0.1v-0.1h-0.1c-1.9-1.1-3.6-2.5-5-4.3c0,0,0,0-0.1,0l0,0C22.4,81,20.7,80.6,19.1,79.9L19.1,79.9L19.1,79.9z"/>
	</g>
	
		<linearGradient id="SVGID_1_" gradientUnits="userSpaceOnUse" x1="-11.0516" y1="14.5547" x2="28.3544" y2="60.8566" gradientTransform="matrix(1 0 0 -1 0 98)">
		<stop  offset="0.4757" style="stop-color:#EC5378"/>
		<stop  offset="0.925" style="stop-color:#FFAB40"/>
	</linearGradient>
	<path class="st3" d="M33.7,28.6C33.6,28.5,33.6,28.5,33.7,28.6C33.6,28.5,33.6,28.5,33.7,28.6c-0.2,0-0.3,0.1-0.4,0.2l-20.6,12
		c-3.5,2-6.2,5.2-7.6,8.8v0.1c1.5,3.7,4.3,6.8,7.7,8.8l7.4,4.3c0,0,0,0,0.1,0c0,0,0,0,0.1,0l0.1-0.1l-0.2-15.5
		c-0.1-6.3,3.3-12.3,8.7-15.5l4.8-2.9C33.7,28.7,33.7,28.6,33.7,28.6z"/>
	
		<linearGradient id="SVGID_2_" gradientUnits="userSpaceOnUse" x1="0.9563" y1="40.1996" x2="45.0725" y2="17.7213" gradientTransform="matrix(1 0 0 -1 0 98)">
		<stop  offset="1.785714e-02" style="stop-color:#FD0199"/>
		<stop  offset="0.2236" style="stop-color:#FA019A"/>
		<stop  offset="0.3806" style="stop-color:#F0029D"/>
		<stop  offset="0.5216" style="stop-color:#E004A2"/>
		<stop  offset="0.6532" style="stop-color:#C907A9"/>
		<stop  offset="0.7782" style="stop-color:#AB0AB2"/>
		<stop  offset="0.8966" style="stop-color:#870EBD"/>
		<stop  offset="0.9821" style="stop-color:#6812C7"/>
	</linearGradient>
	<path class="st4" d="M50.2,69.8L50.2,69.8L50.2,69.8L50.2,69.8L50.2,69.8c-2.6,1.4-5.5,2.1-8.4,2.1c-3,0-6-0.8-8.7-2.3l-13-7.5
		L12.9,58c-3.3-1.9-6-5-7.5-8.5l-0.1-0.1l0,0c0,0-0.1,0-0.1,0.1c-0.6,1.4-1,2.9-1.2,4.5l0.1,7.6c0.1,5.1,2.3,9.9,6.1,13.2
		c0.2,0.2,0.4,0.3,0.6,0.5c0.7,0.5,1.3,0.9,1.9,1.3l4.6,2.6l0.2,0.1l0.2,0.1l1.3,0.7l0,0c1.6,0.7,3.3,1.1,5,1.3
		c0.7,0.1,1.3,0.1,2,0.1c3.2,0,6.3-0.9,9-2.5l15.2-9V69.8C50.3,69.9,50.3,69.8,50.2,69.8z"/>
	
		<linearGradient id="SVGID_3_" gradientUnits="userSpaceOnUse" x1="72.7169" y1="61.0722" x2="38.0087" y2="79.5268" gradientTransform="matrix(1 0 0 -1 0 98)">
		<stop  offset="0.3143" style="stop-color:#2393EC"/>
		<stop  offset="0.4407" style="stop-color:#1AA9C8"/>
		<stop  offset="0.5661" style="stop-color:#14BAAB"/>
		<stop  offset="0.6746" style="stop-color:#0FC499"/>
		<stop  offset="0.754" style="stop-color:#0EC893"/>
	</linearGradient>
	<path class="st5" d="M71.3,28.6c0-2.3-0.4-4.5-1.1-6.7c0,0,0,0,0-0.1l-4.8-2.7l-0.7-0.4h-0.1l-6.3-3.6c0,0,0,0-0.1,0l0,0
		c-2.2,0.5-4.3,1.4-6.2,2.5L32.2,29.4c0,0-0.1,0.1,0,0.1l0.1,0.1l0,0c0.1-0.1,0.3-0.2,0.4-0.2c3.2-1.7,6.9-2.6,10.6-2.6
		c3.9,0,7.8,1,11.2,3l9,5.2l7.8,4.5c0,0,0,0,0.1,0c0,0,0,0,0.1,0l0.1-0.1L71.3,28.6z"/>
	
		<linearGradient id="SVGID_4_" gradientUnits="userSpaceOnUse" x1="74.5625" y1="75.293" x2="51.1297" y2="29.3035" gradientTransform="matrix(1 0 0 -1 0 98)">
		<stop  offset="0" style="stop-color:#65BDFF"/>
		<stop  offset="1" style="stop-color:#3762FF"/>
	</linearGradient>
	<path class="st6" d="M79.6,37.2c-0.1-5-2.2-9.7-5.9-13l0,0l0,0l0,0l0,0c-0.8-0.7-1.7-1.3-2.7-1.9l-0.7-0.4l-4.8-2.7l-0.7-0.4h-0.1
		c-1.6-0.7-3.3-1.1-5-1.3l0,0c0,0-0.1,0-0.1,0.1v0.1c2.4,3,3.8,6.8,3.8,10.7l0.1,6.5v1.7l0.2,15.2c0.1,6.2-3.2,12.1-8.6,15.2
		l-4.9,2.9c0,0-0.1,0.1,0,0.1l0.1,0.1l0,0l0.1-0.1c0.1-0.1,0.2-0.1,0.4-0.2L71,58c3.4-2,6.1-5.1,7.5-8.7c0.6-1.4,1.1-2.9,1.2-4.5
		C79.8,43,79.6,37.2,79.6,37.2z"/>
	
		<linearGradient id="SVGID_5_" gradientUnits="userSpaceOnUse" x1="74.9427" y1="49.7293" x2="23.0465" y2="-2.5889" gradientTransform="matrix(1 0 0 -1 0 98)">
		<stop  offset="0" style="stop-color:#6CCAFF"/>
		<stop  offset="0.725" style="stop-color:#EE40FF"/>
	</linearGradient>
	<path class="st7" d="M79.8,54.8l-0.1-9.9l0,0c-0.2,1.5-0.8,3.1-1.3,4.5C77,53,74.3,56,71,58L50.7,69.7c-0.2,0.1-0.3,0.2-0.5,0.2
		L35,79c-2.7,1.6-5.8,2.4-8.9,2.4c-0.6,0-1.3,0-1.9-0.1c-1.7-0.2-3.7-0.7-5.3-1.4l8.9,5.3l5.7,3.2c2,1.1,4.2,1.8,6.5,2.1
		c0.4,0,0.8,0.1,1.1,0.1c0.4,0,0.7,0,1,0c0.2,0,0.3,0,0.5,0s0.5,0,0.7,0l0,0l0,0c0.3,0,0.7-0.1,1-0.1s0.6-0.1,0.8-0.1
		c0.3,0,0.5-0.1,0.7-0.2c1.8-0.4,3.4-1.1,5-2l5.3-3.1l15.1-9c5.4-3.2,8.7-9,8.7-15.3v-0.1L79.8,54.8z"/>
	
		<linearGradient id="SVGID_6_" gradientUnits="userSpaceOnUse" x1="5.4515" y1="56.4957" x2="64.8755" y2="93.6279" gradientTransform="matrix(1 0 0 -1 0 98)">
		<stop  offset="0" style="stop-color:#FFAB40"/>
		<stop  offset="0.6857" style="stop-color:#D7D66A"/>
		<stop  offset="1" style="stop-color:#A8DB63"/>
	</linearGradient>
	<path class="st8" d="M4.1,54L4,44.2v-0.1l-0.1-6V38c0-6.2,3.3-12.1,8.7-15.3l14.2-8.4l6.2-3.6c2.3-1.4,5-2.2,7.7-2.4
		c0.1,0,0.2,0,0.3,0s0.2,0,0.3,0c0.2,0,0.4,0,0.6,0c0.2,0,0.3,0,0.5,0c0.1,0,0.2,0,0.3,0s0.2,0,0.3,0c0.4,0,0.8,0.1,1.2,0.1
		c0.3,0,0.5,0.1,0.8,0.1c1.9,0.4,3.8,1,5.5,2l4.6,2.6l3.5,2l6.3,3.6l0,0c-1.6-0.7-3.3-0.9-5-1.1c-0.7-0.1-1.3-0.1-2-0.1
		c-3.1,0-6.2,0.8-8.9,2.4L33.3,29c-0.1,0-0.2,0.1-0.3,0.1l-0.3,0.2L12.8,41c-3.3,2-6,5-7.4,8.6C4.8,50.9,4.2,52.4,4.1,54L4.1,54z"/>
</g>
</svg>
